<svg width="440" height="300" viewBox="0 0 440 300" fill="none" xmlns="http://www.w3.org/2000/svg">
<g clip-path="url(#clip0_3_2)">
<path d="M277.836 83.9435H223.35V72.1589C223.35 71.4114 223.053 70.6944 222.524 70.1658C221.995 69.6371 221.279 69.3402 220.531 69.3402H204.531V56.7873C204.531 56.3167 204.344 55.8653 204.011 55.5325C203.678 55.1998 203.227 55.0128 202.757 55.0128H182.146C181.676 55.0128 181.224 55.1998 180.892 55.5325C180.559 55.8653 180.372 56.3167 180.372 56.7873V69.3444H161.562C160.814 69.3444 160.097 69.6414 159.568 70.17C159.04 70.6986 158.743 71.4156 158.743 72.1632V83.9477H106.787C106.635 83.9488 106.491 84.0097 106.384 84.117C106.278 84.2244 106.218 84.3695 106.218 84.5208V240.959C106.218 241.11 106.278 241.255 106.384 241.362C106.491 241.47 106.635 241.531 106.787 241.532H141.317C141.469 241.532 141.614 241.471 141.722 241.364C141.829 241.256 141.89 241.111 141.89 240.959V219.911C141.891 219.759 141.952 219.614 142.059 219.507C142.166 219.4 142.311 219.339 142.463 219.338H157.049C157.201 219.339 157.346 219.4 157.453 219.507C157.56 219.614 157.621 219.759 157.622 219.911V240.959C157.622 241.11 157.682 241.255 157.789 241.362C157.895 241.47 158.04 241.531 158.191 241.532H226.423C226.575 241.531 226.72 241.47 226.827 241.363C226.934 241.255 226.995 241.11 226.996 240.959V219.911C226.996 219.76 227.056 219.615 227.163 219.507C227.269 219.4 227.414 219.339 227.565 219.338H242.151C242.303 219.338 242.449 219.398 242.557 219.506C242.664 219.613 242.725 219.759 242.725 219.911V240.959C242.726 241.11 242.786 241.255 242.894 241.363C243.001 241.47 243.146 241.531 243.298 241.532H277.828C277.979 241.531 278.124 241.47 278.232 241.363C278.339 241.255 278.4 241.11 278.401 240.959V84.5165C278.4 84.3663 278.34 84.2225 278.235 84.1155C278.129 84.0085 277.986 83.9468 277.836 83.9435ZM135.709 212.028C135.709 212.179 135.649 212.323 135.542 212.43C135.435 212.537 135.291 212.597 135.14 212.597H113.812C113.737 212.597 113.663 212.583 113.593 212.555C113.524 212.526 113.461 212.485 113.407 212.432C113.354 212.379 113.312 212.316 113.283 212.247C113.254 212.177 113.239 212.103 113.239 212.028V204.764C113.239 204.689 113.254 204.615 113.283 204.545C113.312 204.476 113.354 204.412 113.407 204.359C113.46 204.306 113.523 204.264 113.593 204.235C113.662 204.206 113.737 204.191 113.812 204.191H135.153C135.304 204.192 135.449 204.253 135.555 204.361C135.662 204.468 135.721 204.613 135.721 204.764L135.709 212.028ZM135.709 193.205C135.709 193.28 135.695 193.354 135.667 193.424C135.638 193.493 135.597 193.557 135.544 193.61C135.491 193.663 135.428 193.705 135.359 193.734C135.289 193.763 135.215 193.778 135.14 193.778H113.812C113.737 193.779 113.662 193.764 113.592 193.736C113.523 193.707 113.459 193.665 113.406 193.611C113.352 193.558 113.31 193.495 113.282 193.425C113.253 193.355 113.239 193.28 113.239 193.205V185.925C113.239 185.849 113.253 185.774 113.282 185.705C113.31 185.635 113.352 185.571 113.406 185.518C113.459 185.465 113.523 185.423 113.592 185.394C113.662 185.365 113.737 185.351 113.812 185.351H135.153C135.228 185.351 135.302 185.366 135.371 185.395C135.441 185.424 135.503 185.466 135.556 185.52C135.609 185.573 135.651 185.636 135.679 185.706C135.708 185.775 135.722 185.849 135.721 185.925L135.709 193.205ZM135.709 174.386C135.709 174.537 135.649 174.683 135.542 174.79C135.436 174.897 135.291 174.958 135.14 174.959H113.812C113.737 174.959 113.662 174.944 113.593 174.916C113.523 174.887 113.46 174.845 113.407 174.791C113.354 174.738 113.312 174.675 113.283 174.606C113.254 174.536 113.239 174.461 113.239 174.386V167.102C113.239 167.026 113.254 166.952 113.283 166.882C113.312 166.813 113.354 166.75 113.407 166.696C113.46 166.643 113.523 166.601 113.593 166.572C113.662 166.543 113.737 166.528 113.812 166.528H135.153C135.304 166.53 135.449 166.59 135.555 166.698C135.662 166.805 135.721 166.95 135.721 167.102L135.709 174.386ZM135.709 155.563C135.709 155.638 135.695 155.713 135.667 155.782C135.638 155.852 135.597 155.915 135.544 155.968C135.491 156.022 135.428 156.064 135.359 156.093C135.289 156.121 135.215 156.136 135.14 156.136H113.812C113.737 156.137 113.662 156.122 113.592 156.094C113.523 156.065 113.459 156.023 113.406 155.97C113.352 155.916 113.31 155.853 113.282 155.783C113.253 155.713 113.239 155.639 113.239 155.563V148.304C113.239 148.229 113.253 148.154 113.282 148.084C113.31 148.014 113.352 147.951 113.406 147.898C113.459 147.844 113.523 147.802 113.592 147.773C113.662 147.745 113.737 147.73 113.812 147.731H135.153C135.228 147.731 135.302 147.746 135.371 147.775C135.441 147.804 135.503 147.846 135.556 147.899C135.609 147.952 135.651 148.016 135.679 148.085C135.708 148.155 135.722 148.229 135.721 148.304L135.709 155.563ZM135.709 136.745C135.709 136.896 135.649 137.041 135.542 137.148C135.436 137.256 135.291 137.317 135.14 137.318H113.812C113.737 137.318 113.662 137.303 113.593 137.274C113.523 137.245 113.46 137.203 113.407 137.15C113.354 137.097 113.312 137.033 113.283 136.964C113.254 136.894 113.239 136.82 113.239 136.745V129.46C113.239 129.385 113.254 129.31 113.283 129.241C113.312 129.172 113.354 129.109 113.407 129.056C113.461 129.003 113.524 128.961 113.593 128.933C113.663 128.905 113.737 128.89 113.812 128.891H135.153C135.303 128.891 135.448 128.951 135.555 129.058C135.662 129.164 135.721 129.309 135.721 129.46L135.709 136.745ZM135.709 117.926C135.709 118.077 135.649 118.221 135.542 118.328C135.435 118.435 135.291 118.495 135.14 118.495H113.812C113.737 118.495 113.663 118.481 113.593 118.453C113.524 118.424 113.461 118.382 113.407 118.33C113.354 118.277 113.312 118.214 113.283 118.144C113.254 118.075 113.239 118.001 113.239 117.926V110.641C113.239 110.566 113.254 110.491 113.283 110.422C113.312 110.352 113.354 110.289 113.407 110.236C113.46 110.183 113.523 110.14 113.593 110.112C113.662 110.083 113.737 110.068 113.812 110.068H135.153C135.304 110.069 135.449 110.13 135.555 110.237C135.662 110.345 135.721 110.49 135.721 110.641L135.709 117.926ZM135.709 99.1029C135.709 99.1779 135.695 99.2523 135.667 99.3219C135.638 99.3914 135.597 99.4546 135.544 99.5078C135.491 99.5611 135.428 99.6034 135.359 99.6322C135.289 99.6611 135.215 99.676 135.14 99.676H113.812C113.737 99.6765 113.662 99.6621 113.592 99.6335C113.523 99.6049 113.459 99.5627 113.406 99.5094C113.352 99.456 113.31 99.3926 113.282 99.3228C113.253 99.2531 113.239 99.1783 113.239 99.1029V91.8437C113.239 91.7682 113.253 91.6935 113.282 91.6237C113.31 91.5539 113.352 91.4905 113.406 91.4372C113.459 91.3838 113.523 91.3416 113.592 91.313C113.662 91.2844 113.737 91.27 113.812 91.2706H135.153C135.228 91.2706 135.302 91.2854 135.371 91.3143C135.441 91.3431 135.503 91.3854 135.556 91.4387C135.609 91.492 135.651 91.5552 135.679 91.6247C135.708 91.6942 135.722 91.7686 135.721 91.8437L135.709 99.1029ZM186.273 212.024C186.273 212.099 186.258 212.173 186.229 212.242C186.2 212.312 186.158 212.375 186.105 212.427C186.051 212.48 185.988 212.522 185.919 212.55C185.849 212.579 185.775 212.593 185.7 212.593H164.372C164.221 212.593 164.076 212.533 163.968 212.426C163.861 212.32 163.8 212.175 163.799 212.024V204.764C163.8 204.613 163.861 204.468 163.968 204.36C164.075 204.253 164.22 204.192 164.372 204.191H185.7C185.775 204.191 185.849 204.206 185.919 204.235C185.988 204.264 186.052 204.306 186.105 204.359C186.158 204.412 186.2 204.476 186.229 204.545C186.258 204.615 186.273 204.689 186.273 204.764V212.024ZM186.273 193.201C186.273 193.276 186.259 193.351 186.23 193.421C186.202 193.49 186.159 193.554 186.106 193.607C186.053 193.661 185.989 193.703 185.92 193.731C185.85 193.76 185.775 193.774 185.7 193.774H164.372C164.22 193.774 164.074 193.713 163.967 193.606C163.859 193.498 163.799 193.353 163.799 193.201V185.925C163.799 185.773 163.859 185.627 163.967 185.519C164.074 185.412 164.22 185.351 164.372 185.351H185.7C185.775 185.351 185.85 185.365 185.92 185.394C185.989 185.423 186.053 185.465 186.106 185.518C186.159 185.571 186.202 185.635 186.23 185.705C186.259 185.774 186.273 185.849 186.273 185.925V193.201ZM186.273 174.382C186.273 174.457 186.258 174.532 186.229 174.601C186.2 174.671 186.158 174.734 186.105 174.787C186.052 174.84 185.988 174.883 185.919 174.911C185.849 174.94 185.775 174.955 185.7 174.955H164.372C164.22 174.954 164.075 174.893 163.968 174.786C163.861 174.679 163.8 174.534 163.799 174.382V167.102C163.8 166.95 163.861 166.805 163.968 166.698C164.075 166.59 164.22 166.53 164.372 166.528H185.7C185.775 166.528 185.849 166.543 185.919 166.572C185.988 166.601 186.052 166.643 186.105 166.696C186.158 166.75 186.2 166.813 186.229 166.882C186.258 166.952 186.273 167.026 186.273 167.102V174.382ZM186.273 155.559C186.273 155.634 186.259 155.709 186.23 155.779C186.202 155.849 186.159 155.912 186.106 155.965C186.053 156.019 185.989 156.061 185.92 156.09C185.85 156.118 185.775 156.133 185.7 156.132H164.372C164.22 156.132 164.074 156.072 163.967 155.964C163.859 155.857 163.799 155.711 163.799 155.559V148.304C163.799 148.152 163.859 148.006 163.967 147.899C164.074 147.791 164.22 147.731 164.372 147.731H185.7C185.775 147.73 185.85 147.745 185.92 147.773C185.989 147.802 186.053 147.844 186.106 147.898C186.159 147.951 186.202 148.014 186.23 148.084C186.259 148.154 186.273 148.229 186.273 148.304V155.559ZM186.273 136.74C186.273 136.816 186.258 136.89 186.229 136.96C186.2 137.029 186.158 137.092 186.105 137.146C186.052 137.199 185.988 137.241 185.919 137.27C185.849 137.299 185.775 137.313 185.7 137.313H164.372C164.22 137.312 164.075 137.252 163.968 137.144C163.861 137.037 163.8 136.892 163.799 136.74V129.46C163.8 129.309 163.861 129.164 163.968 129.057C164.076 128.951 164.221 128.891 164.372 128.891H185.7C185.775 128.89 185.849 128.905 185.919 128.933C185.988 128.961 186.051 129.003 186.105 129.056C186.158 129.109 186.2 129.172 186.229 129.241C186.258 129.31 186.273 129.385 186.273 129.46V136.74ZM186.273 117.922C186.273 117.997 186.258 118.071 186.229 118.14C186.2 118.21 186.158 118.272 186.105 118.325C186.051 118.378 185.988 118.42 185.919 118.448C185.849 118.477 185.775 118.491 185.7 118.49H164.372C164.221 118.49 164.076 118.431 163.968 118.324C163.861 118.218 163.8 118.073 163.799 117.922V110.641C163.8 110.49 163.861 110.344 163.968 110.237C164.075 110.13 164.22 110.069 164.372 110.068H185.7C185.775 110.068 185.849 110.083 185.919 110.112C185.988 110.14 186.052 110.183 186.105 110.236C186.158 110.289 186.2 110.352 186.229 110.422C186.258 110.491 186.273 110.566 186.273 110.641V117.922ZM186.273 99.0986C186.273 99.174 186.259 99.2488 186.23 99.3186C186.202 99.3884 186.159 99.4518 186.106 99.5051C186.053 99.5584 185.989 99.6006 185.92 99.6292C185.85 99.6578 185.775 99.6723 185.7 99.6717H164.372C164.22 99.6717 164.074 99.6113 163.967 99.5038C163.859 99.3964 163.799 99.2506 163.799 99.0986V91.8437C163.799 91.6917 163.859 91.5459 163.967 91.4384C164.074 91.331 164.22 91.2706 164.372 91.2706H185.7C185.775 91.27 185.85 91.2844 185.92 91.313C185.989 91.3416 186.053 91.3838 186.106 91.4372C186.159 91.4905 186.202 91.5539 186.23 91.6237C186.259 91.6935 186.273 91.7682 186.273 91.8437V99.0986ZM220.824 212.019C220.824 212.094 220.809 212.169 220.78 212.238C220.751 212.307 220.709 212.37 220.656 212.423C220.602 212.476 220.539 212.518 220.47 212.546C220.4 212.575 220.326 212.589 220.251 212.588H198.923C198.772 212.588 198.627 212.528 198.519 212.422C198.412 212.315 198.351 212.171 198.35 212.019V204.764C198.351 204.613 198.412 204.468 198.519 204.36C198.626 204.253 198.771 204.192 198.923 204.191H220.251C220.403 204.191 220.549 204.252 220.656 204.359C220.763 204.467 220.824 204.612 220.824 204.764V212.019ZM220.824 193.196C220.824 193.272 220.81 193.347 220.781 193.416C220.753 193.486 220.711 193.55 220.657 193.603C220.604 193.656 220.541 193.698 220.471 193.727C220.401 193.756 220.326 193.77 220.251 193.77H198.923C198.771 193.77 198.625 193.709 198.518 193.602C198.41 193.494 198.35 193.348 198.35 193.196V185.925C198.35 185.773 198.41 185.627 198.518 185.519C198.625 185.412 198.771 185.351 198.923 185.351H220.251C220.326 185.351 220.401 185.365 220.471 185.394C220.541 185.423 220.604 185.465 220.657 185.518C220.711 185.571 220.753 185.635 220.781 185.705C220.81 185.774 220.824 185.849 220.824 185.925V193.196ZM220.824 174.378C220.824 174.53 220.763 174.675 220.656 174.783C220.549 174.89 220.403 174.951 220.251 174.951H198.923C198.771 174.95 198.626 174.889 198.519 174.782C198.412 174.675 198.351 174.529 198.35 174.378V167.102C198.351 166.95 198.412 166.805 198.519 166.698C198.626 166.59 198.771 166.53 198.923 166.528H220.251C220.403 166.528 220.549 166.589 220.656 166.696C220.763 166.804 220.824 166.95 220.824 167.102V174.378ZM220.824 155.555C220.824 155.63 220.81 155.705 220.781 155.775C220.753 155.845 220.711 155.908 220.657 155.961C220.604 156.015 220.541 156.057 220.471 156.085C220.401 156.114 220.326 156.128 220.251 156.128H198.923C198.771 156.128 198.625 156.067 198.518 155.96C198.41 155.853 198.35 155.707 198.35 155.555V148.304C198.35 148.152 198.41 148.006 198.518 147.899C198.625 147.791 198.771 147.731 198.923 147.731H220.251C220.326 147.73 220.401 147.745 220.471 147.773C220.541 147.802 220.604 147.844 220.657 147.898C220.711 147.951 220.753 148.014 220.781 148.084C220.81 148.154 220.824 148.229 220.824 148.304V155.555ZM220.824 136.736C220.824 136.888 220.763 137.034 220.656 137.141C220.549 137.249 220.403 137.309 220.251 137.309H198.923C198.771 137.308 198.626 137.247 198.519 137.14C198.412 137.033 198.351 136.888 198.35 136.736V129.46C198.351 129.309 198.412 129.164 198.519 129.057C198.627 128.951 198.772 128.891 198.923 128.891H220.251C220.326 128.89 220.4 128.905 220.47 128.933C220.539 128.961 220.602 129.003 220.656 129.056C220.709 129.109 220.751 129.172 220.78 129.241C220.809 129.31 220.824 129.385 220.824 129.46V136.736ZM220.824 117.917C220.824 117.992 220.809 118.067 220.78 118.136C220.751 118.205 220.709 118.268 220.656 118.321C220.602 118.374 220.539 118.416 220.47 118.444C220.4 118.472 220.326 118.487 220.251 118.486H198.923C198.772 118.486 198.627 118.426 198.519 118.32C198.412 118.213 198.351 118.069 198.35 117.917V110.641C198.351 110.49 198.412 110.344 198.519 110.237C198.626 110.13 198.771 110.069 198.923 110.068H220.251C220.403 110.068 220.549 110.128 220.656 110.236C220.763 110.343 220.824 110.489 220.824 110.641V117.917ZM220.824 99.0944C220.824 99.1698 220.81 99.2446 220.781 99.3144C220.753 99.3841 220.711 99.4475 220.657 99.5009C220.604 99.5542 220.541 99.5964 220.471 99.625C220.401 99.6536 220.326 99.668 220.251 99.6675H198.923C198.771 99.6675 198.625 99.6071 198.518 99.4996C198.41 99.3921 198.35 99.2464 198.35 99.0944V91.8437C198.35 91.6917 198.41 91.5459 198.518 91.4384C198.625 91.331 198.771 91.2706 198.923 91.2706H220.251C220.326 91.27 220.401 91.2844 220.471 91.313C220.541 91.3416 220.604 91.3838 220.657 91.4372C220.711 91.4905 220.753 91.5539 220.781 91.6237C220.81 91.6935 220.824 91.7682 220.824 91.8437V99.0944ZM271.388 212.015C271.387 212.166 271.326 212.311 271.218 212.418C271.111 212.524 270.966 212.584 270.815 212.584H249.487C249.412 212.585 249.338 212.57 249.268 212.542C249.199 212.514 249.135 212.472 249.082 212.419C249.029 212.366 248.987 212.303 248.958 212.234C248.929 212.165 248.914 212.09 248.914 212.015V204.764C248.914 204.612 248.974 204.467 249.082 204.359C249.189 204.252 249.335 204.191 249.487 204.191H270.815C270.966 204.192 271.111 204.253 271.219 204.36C271.326 204.468 271.387 204.613 271.388 204.764V212.015ZM271.388 193.192C271.388 193.344 271.327 193.49 271.22 193.597C271.112 193.705 270.967 193.765 270.815 193.765H249.487C249.412 193.766 249.337 193.751 249.267 193.723C249.197 193.694 249.134 193.652 249.081 193.599C249.027 193.545 248.985 193.482 248.956 193.412C248.928 193.342 248.913 193.268 248.914 193.192V185.925C248.913 185.849 248.928 185.774 248.956 185.705C248.985 185.635 249.027 185.571 249.081 185.518C249.134 185.465 249.197 185.423 249.267 185.394C249.337 185.365 249.412 185.351 249.487 185.351H270.815C270.967 185.351 271.112 185.412 271.22 185.519C271.327 185.627 271.388 185.773 271.388 185.925V193.192ZM271.388 174.373C271.387 174.525 271.326 174.67 271.219 174.777C271.111 174.885 270.966 174.945 270.815 174.947H249.487C249.335 174.947 249.189 174.886 249.082 174.779C248.974 174.671 248.914 174.525 248.914 174.373V167.102C248.914 166.95 248.974 166.804 249.082 166.696C249.189 166.589 249.335 166.528 249.487 166.528H270.815C270.966 166.53 271.111 166.59 271.219 166.698C271.326 166.805 271.387 166.95 271.388 167.102V174.373ZM271.388 155.551C271.388 155.703 271.327 155.848 271.22 155.956C271.112 156.063 270.967 156.124 270.815 156.124H249.487C249.338 156.123 249.196 156.063 249.091 155.959C248.985 155.854 248.925 155.712 248.922 155.563V148.304C248.922 148.229 248.936 148.154 248.965 148.084C248.994 148.014 249.036 147.951 249.089 147.898C249.142 147.844 249.206 147.802 249.276 147.773C249.345 147.745 249.42 147.73 249.496 147.731H270.823C270.975 147.731 271.121 147.791 271.228 147.899C271.336 148.006 271.396 148.152 271.396 148.304L271.388 155.551ZM271.388 136.732C271.387 136.883 271.326 137.029 271.219 137.136C271.111 137.243 270.966 137.304 270.815 137.305H249.487C249.335 137.305 249.189 137.245 249.082 137.137C248.974 137.03 248.914 136.884 248.914 136.732V129.46C248.914 129.385 248.929 129.31 248.958 129.241C248.987 129.172 249.029 129.109 249.082 129.056C249.135 129.003 249.199 128.961 249.268 128.933C249.338 128.905 249.412 128.89 249.487 128.891H270.815C270.966 128.891 271.111 128.951 271.218 129.057C271.326 129.164 271.387 129.309 271.388 129.46V136.732ZM271.388 117.913C271.387 118.064 271.326 118.209 271.218 118.316C271.111 118.422 270.966 118.482 270.815 118.482H249.487C249.412 118.482 249.338 118.468 249.268 118.44C249.199 118.412 249.135 118.37 249.082 118.317C249.029 118.264 248.987 118.201 248.958 118.132C248.929 118.062 248.914 117.988 248.914 117.913V110.641C248.914 110.489 248.974 110.343 249.082 110.236C249.189 110.128 249.335 110.068 249.487 110.068H270.815C270.966 110.069 271.111 110.13 271.219 110.237C271.326 110.344 271.387 110.49 271.388 110.641V117.913ZM271.388 99.0901C271.388 99.1654 271.373 99.2399 271.344 99.3094C271.315 99.379 271.273 99.4421 271.22 99.4954C271.167 99.5486 271.103 99.5908 271.034 99.6196C270.964 99.6484 270.89 99.6632 270.815 99.6632H249.487C249.338 99.6621 249.196 99.6029 249.091 99.4981C248.985 99.3934 248.925 99.2515 248.922 99.1029V91.8437C248.922 91.7682 248.936 91.6935 248.965 91.6237C248.994 91.5539 249.036 91.4905 249.089 91.4372C249.142 91.3838 249.206 91.3416 249.276 91.313C249.345 91.2844 249.42 91.27 249.496 91.2706H270.823C270.975 91.2706 271.121 91.331 271.228 91.4384C271.336 91.5459 271.396 91.6917 271.396 91.8437L271.388 99.0901Z" fill="#93C1DF"/>
<path d="M113.409 18.7805L106.821 22.9577L110.819 15.6816C109.687 14.7781 108.286 14.2777 106.837 14.2594H106.731C106.274 14.2663 105.816 14.2322 105.364 14.1576L103.131 15.5712L104.087 13.8307C102.503 13.2785 101.136 12.2381 100.181 10.8591L96.1864 13.4062L98.708 8.81716C96.3732 6.01112 93.2233 4.29184 89.755 4.29184C85.599 4.29184 81.8973 6.76252 79.5073 10.6129C78.8005 11.769 77.799 12.7164 76.6055 13.3579C75.4119 13.9994 74.0692 14.312 72.715 14.2637H72.4943C67.9053 14.2637 64.1866 19.4682 64.1866 25.8826C64.1866 32.297 67.9223 37.5058 72.5113 37.5058C73.5194 37.5006 74.5112 37.2515 75.4022 36.7799C76.9641 36.02 78.6725 35.6089 80.4091 35.5752C82.1457 35.5415 83.8688 35.8859 85.459 36.5846C86.8038 37.1863 88.2605 37.4972 89.7338 37.4972C91.2071 37.4972 92.6638 37.1863 94.0087 36.5846C95.5862 35.9005 97.2925 35.5639 99.0116 35.5976C100.731 35.6312 102.423 36.0345 103.972 36.7799C104.855 37.2476 105.838 37.4965 106.837 37.5058C111.426 37.5058 115.145 32.3013 115.145 25.8826C115.173 23.407 114.575 20.9644 113.409 18.7805Z" fill="#93C1DF"/>
<path opacity="0.03" d="M100.992 35.7823C98.5949 35.3259 96.1162 35.5949 93.8729 36.5549C92.5284 37.1551 91.0725 37.4654 89.6001 37.4654C88.1277 37.4654 86.6719 37.1551 85.3274 36.5549C83.7367 35.8582 82.0138 35.5148 80.2776 35.5485C78.5413 35.5822 76.8331 35.9922 75.2706 36.7502C74.3791 37.2242 73.3852 37.4734 72.3755 37.4761C68.3001 37.4761 64.9082 33.3711 64.2036 27.9543C65.0182 27.3595 65.7101 26.6128 66.2412 25.7553C68.6312 21.9049 72.333 19.4343 76.489 19.4343C80.645 19.4343 84.3001 21.8752 86.6773 25.6874C87.3892 26.8387 88.3869 27.7863 89.5734 28.4379C90.7599 29.0895 92.0948 29.4231 93.4483 29.4061H93.5545C96.8147 29.3849 99.625 31.9871 100.992 35.7823Z" fill="black"/>
<path d="M345.61 7.22948L342.316 9.31384L344.311 5.68425C343.746 5.23402 343.047 4.98461 342.324 4.97531H342.273C342.044 4.9798 341.815 4.96274 341.59 4.92437L340.477 5.6333L340.953 4.78428C340.165 4.50788 339.483 3.99117 339.004 3.30697L337.013 4.58051L338.287 2.29238C337.761 1.60178 337.088 1.0375 336.316 0.64086C335.544 0.244217 334.693 0.0252548 333.825 1.19209e-06C331.754 1.19209e-06 329.907 1.23534 328.731 3.15414C328.377 3.73142 327.876 4.20426 327.279 4.52426C326.683 4.84426 326.012 4.99993 325.335 4.97531H325.225C322.936 4.97531 321.081 7.56909 321.081 10.7699C321.081 13.9708 322.936 16.5645 325.225 16.5645C325.728 16.5629 326.223 16.4391 326.668 16.2037C327.447 15.8253 328.298 15.6206 329.164 15.6037C330.03 15.5869 330.889 15.7583 331.681 16.1061C332.353 16.4056 333.08 16.5605 333.815 16.5605C334.55 16.5605 335.277 16.4056 335.948 16.1061C336.735 15.7655 337.586 15.5979 338.444 15.6147C339.302 15.6316 340.146 15.8324 340.919 16.2037C341.359 16.434 341.848 16.5548 342.345 16.5561C344.633 16.5561 346.489 13.9623 346.489 10.7614C346.495 9.52921 346.193 8.31494 345.61 7.22948Z" fill="#78B4D8"/>
<path opacity="0.03" d="M339.416 15.707C338.22 15.4821 336.983 15.6165 335.863 16.0933C335.195 16.3905 334.472 16.5439 333.74 16.5433C333.009 16.5396 332.286 16.3834 331.618 16.0848C330.824 15.737 329.965 15.5655 329.098 15.5824C328.232 15.5992 327.379 15.804 326.6 16.1825C326.155 16.4183 325.66 16.5422 325.157 16.5433C323.123 16.5433 321.434 14.4972 321.081 11.793C321.488 11.4965 321.834 11.1247 322.1 10.6978C323.289 8.77895 325.135 7.54362 327.194 7.54362C329.253 7.54362 331.091 8.76197 332.289 10.6638C332.645 11.2408 333.146 11.7152 333.741 12.0404C334.337 12.3657 335.006 12.5305 335.685 12.5189H335.74C337.332 12.5189 338.733 13.8179 339.416 15.707Z" fill="black"/>
<path d="M263.122 45.406L259.259 47.8555L261.603 43.6104C260.941 43.0751 260.119 42.7763 259.268 42.7613H259.204C258.935 42.7651 258.667 42.7452 258.402 42.7019L257.094 43.5509L257.655 42.5278C256.727 42.2046 255.925 41.5971 255.362 40.7916L253.019 42.2774L254.501 39.586C253.877 38.7809 253.083 38.1247 252.175 37.6651C251.266 37.2054 250.267 36.9538 249.249 36.9285C246.813 36.9285 244.639 38.3803 243.238 40.6388C242.822 41.3117 242.235 41.8626 241.537 42.2354C240.84 42.6082 240.055 42.7897 239.265 42.7613H239.133C236.442 42.7613 234.264 45.8136 234.264 49.5536C234.264 53.2935 236.442 56.367 239.133 56.367C239.725 56.366 240.308 56.2202 240.831 55.9425C241.747 55.4975 242.749 55.2567 243.767 55.2369C244.785 55.2172 245.795 55.4188 246.728 55.8279C247.517 56.1791 248.371 56.3606 249.234 56.3606C250.098 56.3606 250.952 56.1791 251.741 55.8279C252.667 55.427 253.668 55.2297 254.676 55.2495C255.685 55.2693 256.677 55.5056 257.587 55.9425C258.11 56.2183 258.693 56.3639 259.285 56.367C261.976 56.367 264.158 53.319 264.158 49.5536C264.165 48.1062 263.809 46.6803 263.122 45.406Z" fill="#93C1DF"/>
<path opacity="0.03" d="M255.842 55.3779C254.435 55.1116 252.981 55.2697 251.665 55.8321C250.876 56.1834 250.022 56.3649 249.158 56.3649C248.294 56.3649 247.44 56.1834 246.651 55.8321C245.719 55.423 244.708 55.2214 243.69 55.2412C242.672 55.261 241.671 55.5017 240.755 55.9467C240.232 56.224 239.649 56.3697 239.057 56.3713C236.667 56.3713 234.676 53.9643 234.264 50.7889C234.74 50.4451 235.145 50.0126 235.457 49.5153C236.858 47.2569 239.031 45.8093 241.468 45.8093C243.905 45.8093 246.053 47.24 247.454 49.4729C247.87 50.1486 248.455 50.7048 249.151 51.0872C249.846 51.4696 250.629 51.6652 251.423 51.6549H251.469C253.388 51.6252 255.04 53.1534 255.842 55.3779Z" fill="black"/>
<path d="M402.121 241.634C402.121 242.364 402.121 243.094 402.074 243.816C401.966 246.625 401.628 249.42 401.064 252.174C398.275 265.805 390.222 276.401 380.106 279.53C378.094 280.157 375.998 280.476 373.891 280.477C358.299 280.477 345.661 263.072 345.661 241.634C345.661 220.196 358.299 202.79 373.891 202.79C388.515 202.79 400.546 218.098 401.977 237.707C402.074 238.997 402.121 240.309 402.121 241.634Z" fill="#36334A"/>
<path opacity="0.1" d="M402.074 243.82C401.966 246.629 401.628 249.424 401.064 252.178C398.275 265.81 390.222 276.405 380.106 279.534C372.273 275.93 366.462 262.422 366.462 246.307C366.462 227.434 374.443 212.134 384.291 212.134C392.557 212.134 399.51 222.925 401.527 237.567C401.807 239.575 401.989 241.672 402.074 243.82Z" fill="black"/>
<path d="M260.333 155.669C260.333 155.669 336.746 139.962 377.075 154.396C377.075 154.396 383.018 157.367 377.075 162.462C377.075 162.462 382.695 168.405 372.881 170.527L333.889 172.926L260.333 165.433V155.669Z" fill="#3F3D56"/>
<path opacity="0.1" d="M273.706 157.643C273.706 157.643 339.127 144.195 373.657 156.552C373.657 156.552 378.752 159.099 373.657 163.459C373.657 163.459 378.467 168.553 370.066 170.366L336.682 172.416L273.706 166.011V157.643Z" fill="black"/>
<path d="M348.208 181.14L343.114 170.952C343.114 170.952 345.347 160.645 327.194 157.614C326.188 153.118 321.629 149.726 316.157 149.726C310.817 149.726 306.351 152.952 305.196 157.283C302.59 157.508 299.813 157.813 296.842 158.216L292.69 180.478L292.172 179.442C292.172 179.442 294.808 167.267 271.048 165.488C272.343 163.919 273.057 161.95 273.069 159.915C273.069 154.519 268.03 150.151 261.819 150.151C255.609 150.151 250.57 154.519 250.57 159.915C250.586 162.131 251.427 164.262 252.93 165.892C250.708 166.104 248.365 166.376 245.9 166.707L241.23 191.753L262.88 194.725L297.266 189.631L294.222 183.539L313.822 186.23L348.208 181.14Z" fill="#2A98C7"/>
<path opacity="0.2" d="M348.208 181.14L343.114 170.952C343.114 170.952 345.347 160.645 327.194 157.614C326.188 153.118 321.629 149.726 316.157 149.726C310.817 149.726 306.351 152.952 305.196 157.283C302.59 157.508 299.813 157.813 296.842 158.216L292.69 180.478L292.172 179.442C292.172 179.442 294.808 167.267 271.048 165.488C272.343 163.919 273.057 161.95 273.069 159.915C273.069 154.519 268.03 150.151 261.819 150.151C255.609 150.151 250.57 154.519 250.57 159.915C250.586 162.131 251.427 164.262 252.93 165.892C250.708 166.104 248.365 166.376 245.9 166.707L241.23 191.753L262.88 194.725L297.266 189.631L294.222 183.539L313.822 186.23L348.208 181.14Z" fill="black"/>
<path d="M275.183 158.59C275.183 158.59 271.787 139.538 287.494 139.113C303.201 138.689 298.107 166.707 298.107 166.707C298.107 166.707 309.993 169.254 310.842 173.924C311.691 178.593 269.664 179.867 269.664 179.867L275.183 158.59Z" fill="#2A98C7"/>
<path d="M247.598 259.251C247.598 281.75 230.872 300.004 210.241 300.004C189.609 300.004 172.883 281.75 172.883 259.251C172.883 236.752 189.817 214.889 210.453 214.889C231.089 214.889 247.598 236.743 247.598 259.251Z" fill="#36334A"/>
<path opacity="0.1" d="M210.241 295.33C226.652 295.33 239.957 279.937 239.957 260.949C239.957 241.961 226.652 226.568 210.241 226.568C193.829 226.568 180.525 241.961 180.525 260.949C180.525 279.937 193.829 295.33 210.241 295.33Z" fill="black"/>
<path d="M45.9537 296.179C66.5855 296.179 83.3109 277.933 83.3109 255.426C83.3109 232.919 66.5855 214.673 45.9537 214.673C25.3218 214.673 8.59644 232.919 8.59644 255.426C8.59644 277.933 25.3218 296.179 45.9537 296.179Z" fill="#36334A"/>
<path d="M109.631 158.216C109.631 158.216 92.2257 159.065 93.0748 168.405C93.9238 177.744 107.933 170.952 107.933 170.952L109.631 158.216Z" fill="#36334A"/>
<path d="M254.441 173.775L261.607 125.953C261.607 125.953 263.305 120.01 240.381 120.01C240.381 120.01 166.94 115.341 148.262 122.982C148.262 122.982 126.611 131.048 96.4709 172.65C96.4709 172.65 251.469 176.322 254.441 173.775Z" fill="#3F3D56"/>
<path d="M251.843 123.831L238.683 176.046L230.431 175.847L191.375 174.896L104.269 172.773C104.027 168.647 145.277 125.953 145.277 125.953L251.843 123.831Z" fill="#36334A"/>
<path opacity="0.2" d="M191.388 174.896L194.945 161.141C194.945 161.141 191.549 142.085 207.256 141.66C222.963 141.236 217.869 169.254 217.869 169.254C217.869 169.254 228.694 171.576 230.418 175.847L191.388 174.896Z" fill="#2A98C7"/>
<path d="M402.333 238.662C399.786 214.04 383.867 208.734 383.867 208.734C368.584 207.885 358.396 266.043 358.396 266.043L240.806 276.656C240.806 276.656 244.839 227.2 216.396 219.134C187.954 211.068 180.525 269.015 179.251 277.08C177.978 285.146 7.74738 276.231 3.07773 272.835C-1.59193 269.439 0.106129 236.752 1.37967 234.204C2.65321 231.657 6.04933 220.196 6.04933 220.196C6.04933 217.462 7.35683 214.006 8.44359 211.608C9.20771 209.91 9.86996 208.734 9.86996 208.734C13.559 187.814 32.7131 182.749 33.9993 182.414H34.0673C39.1614 177.32 86.2825 173.923 86.2825 173.923L104.112 170.527L249.071 173.376L255.239 173.499L328.935 169.954L378.773 167.556C390.235 167.556 396.178 196.423 396.178 196.423C406.791 221.894 402.333 238.662 402.333 238.662Z" fill="#3F3D56"/>
<path opacity="0.1" d="M163.351 213.661C174.549 209.155 181.339 199.82 178.518 192.809C175.697 185.799 164.333 183.769 153.136 188.275C141.939 192.781 135.149 202.116 137.97 209.126C140.791 216.136 152.154 218.167 163.351 213.661Z" fill="black"/>
<path d="M162.503 211.961C173.7 207.455 180.49 198.12 177.669 191.11C174.849 184.099 163.485 182.069 152.288 186.575C141.091 191.081 134.3 200.416 137.121 207.426C139.942 214.436 151.306 216.467 162.503 211.961Z" fill="#F2F2F2"/>
<path opacity="0.1" d="M34.8484 183.28C34.6319 187.949 32.539 193.842 28.7736 199.517C22.7157 208.653 14.408 214.032 9.2926 212.457C10.0567 210.759 10.719 209.583 10.719 209.583C14.408 188.663 33.5621 183.598 34.8484 183.28Z" fill="black"/>
<path d="M33.5748 182.431C33.3583 187.1 31.2654 192.993 27.5 198.668C21.4422 207.804 13.1344 213.183 8.01904 211.608C8.78317 209.91 9.44541 208.734 9.44541 208.734C13.1344 187.814 32.2885 182.749 33.5748 182.431Z" fill="#F2F2F2"/>
<path d="M93.0747 195.145H59.5381L57.8401 190.475H98.5934L93.0747 195.145Z" fill="#36334A"/>
<path d="M85.4335 229.531H30.2466V245.662H85.4335V229.531Z" fill="#36334A"/>
<path opacity="0.1" d="M144.866 261.369C149.086 261.369 152.507 257.948 152.507 253.728C152.507 249.508 149.086 246.087 144.866 246.087C140.645 246.087 137.224 249.508 137.224 253.728C137.224 257.948 140.645 261.369 144.866 261.369Z" fill="black"/>
<path d="M144.016 260.096C148.237 260.096 151.658 256.675 151.658 252.454C151.658 248.234 148.237 244.813 144.016 244.813C139.796 244.813 136.375 248.234 136.375 252.454C136.375 256.675 139.796 260.096 144.016 260.096Z" fill="#F2F2F2"/>
<path opacity="0.1" d="M6.04933 255.851C8.1594 255.851 9.86995 252.239 9.86995 247.785C9.86995 243.33 8.1594 239.719 6.04933 239.719C3.93925 239.719 2.2287 243.33 2.2287 247.785C2.2287 252.239 3.93925 255.851 6.04933 255.851Z" fill="black"/>
<path d="M4.77577 255.426C6.88584 255.426 8.5964 251.815 8.5964 247.36C8.5964 242.906 6.88584 239.294 4.77577 239.294C2.66569 239.294 0.955139 242.906 0.955139 247.36C0.955139 251.815 2.66569 255.426 4.77577 255.426Z" fill="#F2F2F2"/>
<path d="M341.416 213.403C336.746 227.837 336.321 250.336 336.321 250.336L334.623 256.279L251.843 265.619C251.843 265.619 252.268 224.016 253.541 204.489C254.437 190.713 251.113 179.052 249.071 173.376L255.239 173.499L328.935 169.954C341.246 178.585 345.606 200.443 341.416 213.403Z" fill="#36334A"/>
<path d="M322.542 187.381C322.252 187.4 321.969 187.48 321.712 187.614C321.455 187.749 321.229 187.936 321.048 188.164C320.867 188.391 320.736 188.654 320.663 188.935C320.59 189.216 320.576 189.509 320.623 189.796C320.663 190.036 320.762 190.263 320.91 190.456C321.058 190.649 321.251 190.803 321.472 190.904C322.843 191.588 331.97 190.055 335.43 189.444C335.942 189.361 336.413 189.11 336.767 188.732C337.122 188.353 337.342 187.867 337.391 187.351C337.434 186.748 337.213 186.234 336.33 186.234L322.542 187.381Z" fill="#F2F2F2"/>
<path d="M248.871 171.801C248.871 171.801 250.994 181.14 261.182 178.169L264.578 165.009L257.786 161.188L248.871 171.801Z" fill="#36334A"/>
<path d="M261.348 152.838C266.018 150.07 273.425 147.65 280.752 153.462C282.278 154.666 283.353 156.348 283.807 158.238C284.26 160.127 284.065 162.114 283.253 163.879C280.854 169.071 275.162 174.705 261.87 167.959C260.565 167.297 259.452 166.312 258.635 165.098L258.567 164.996C257.924 164.023 257.485 162.93 257.277 161.783C257.068 160.636 257.095 159.458 257.355 158.322C257.615 157.185 258.103 156.113 258.789 155.17C259.476 154.228 260.346 153.434 261.348 152.838Z" fill="#36334A"/>
<path d="M210.453 267.525C215.142 267.525 218.943 263.723 218.943 259.034C218.943 254.345 215.142 250.544 210.453 250.544C205.764 250.544 201.963 254.345 201.963 259.034C201.963 263.723 205.764 267.525 210.453 267.525Z" fill="#F2F2F2"/>
<path d="M385.777 252.242C388.356 252.242 390.447 248.441 390.447 243.752C390.447 239.063 388.356 235.262 385.777 235.262C383.198 235.262 381.108 239.063 381.108 243.752C381.108 248.441 383.198 252.242 385.777 252.242Z" fill="#F2F2F2"/>
<path d="M210.665 232.927H209.816C207.003 232.927 204.722 235.207 204.722 238.021V242.691C204.722 245.504 207.003 247.785 209.816 247.785H210.665C213.479 247.785 215.759 245.504 215.759 242.691V238.021C215.759 235.207 213.479 232.927 210.665 232.927Z" fill="#36334A"/>
<path d="M385.777 216.583C386.168 216.583 386.554 216.66 386.914 216.809C387.275 216.958 387.603 217.177 387.879 217.453C388.154 217.729 388.373 218.057 388.523 218.417C388.672 218.778 388.749 219.164 388.749 219.555V226.347C388.749 227.698 388.212 228.994 387.257 229.949C386.301 230.904 385.006 231.441 383.655 231.441C382.867 231.441 382.111 231.128 381.553 230.571C380.996 230.013 380.683 229.257 380.683 228.469V221.677C380.683 220.326 381.22 219.03 382.175 218.075C383.131 217.12 384.426 216.583 385.777 216.583Z" fill="#36334A"/>
<path d="M385.777 270.925C384.426 270.925 383.131 270.388 382.175 269.433C381.22 268.478 380.683 267.182 380.683 265.831V261.161C380.683 259.81 381.22 258.514 382.175 257.559C383.131 256.604 384.426 256.067 385.777 256.067C388.579 256.067 388.324 258.359 388.324 261.161V265.831C388.32 268.633 388.588 270.925 385.777 270.925Z" fill="#36334A"/>
<path d="M373.042 236.111C374.393 236.111 375.689 236.647 376.644 237.603C377.599 238.558 378.136 239.854 378.136 241.205V247.572C378.136 248.473 377.778 249.337 377.141 249.974C376.504 250.611 375.641 250.969 374.74 250.969C373.389 250.969 372.093 250.432 371.138 249.477C370.183 248.521 369.646 247.225 369.646 245.874V239.507C369.646 238.606 370.004 237.742 370.641 237.105C371.277 236.468 372.141 236.111 373.042 236.111Z" fill="#36334A"/>
<path d="M402.121 241.633C402.121 242.364 402.121 243.094 402.074 243.815C401.966 246.625 401.628 249.42 401.064 252.174C400.784 252.221 400.5 252.246 400.215 252.246C398.864 252.246 397.568 251.71 396.613 250.754C395.658 249.799 395.121 248.503 395.121 247.152V242.483C395.121 241.131 395.658 239.836 396.613 238.88C397.568 237.925 398.864 237.388 400.215 237.388C400.66 237.387 401.102 237.446 401.531 237.562C401.684 237.605 401.837 237.652 401.981 237.707C402.074 238.997 402.121 240.309 402.121 241.633Z" fill="#36334A"/>
<path d="M232.103 250.969H231.254C228.441 250.969 226.16 253.249 226.16 256.063V260.732C226.16 263.546 228.441 265.827 231.254 265.827H232.103C234.917 265.827 237.197 263.546 237.197 260.732V256.063C237.197 253.249 234.917 250.969 232.103 250.969Z" fill="#36334A"/>
<path d="M190.501 250.969H189.652C186.838 250.969 184.558 253.249 184.558 256.063V260.732C184.558 263.546 186.838 265.827 189.652 265.827H190.501C193.314 265.827 195.595 263.546 195.595 260.732V256.063C195.595 253.249 193.314 250.969 190.501 250.969Z" fill="#36334A"/>
<path d="M210.877 273.043H210.028C207.215 273.043 204.934 275.324 204.934 278.138V282.807C204.934 285.621 207.215 287.901 210.028 287.901H210.877C213.691 287.901 215.972 285.621 215.972 282.807V278.138C215.972 275.324 213.691 273.043 210.877 273.043Z" fill="#36334A"/>
<path d="M358.719 87.4542C358.716 88.2639 358.573 89.0669 358.294 89.8272C357.81 91.1784 356.925 92.3495 355.757 93.1839C354.59 94.0184 353.195 94.4764 351.76 94.4967C350.325 94.517 348.918 94.0987 347.727 93.2976C346.536 92.4965 345.618 91.3509 345.096 90.014C344.776 89.203 344.612 88.3388 344.612 87.4669C344.612 85.598 345.355 83.8055 346.676 82.484C347.998 81.1624 349.79 80.42 351.659 80.42C353.528 80.42 355.32 81.1624 356.642 82.484C357.964 83.8055 358.706 85.598 358.706 87.4669L358.719 87.4542Z" fill="#FF6584"/>
<path d="M346.043 89.2117C345.594 88.4025 345.308 87.5128 345.203 86.5934C345.098 85.6739 345.175 84.7428 345.43 83.8531C345.684 82.9634 346.112 82.1325 346.687 81.408C347.263 80.6835 347.976 80.0794 348.785 79.6304C349.571 79.1851 350.436 78.8967 351.332 78.7814C350.361 78.7469 349.394 78.9136 348.49 79.271C347.587 79.6283 346.767 80.1686 346.082 80.858C345.398 81.5473 344.863 82.3708 344.512 83.2767C344.161 84.1825 344.001 85.1512 344.042 86.1219C344.083 87.0926 344.324 88.0443 344.751 88.9173C345.177 89.7902 345.78 90.5655 346.52 91.1946C347.26 91.8236 348.123 92.2927 349.053 92.5724C349.984 92.8521 350.962 92.9364 351.927 92.8201C350.719 92.7741 349.543 92.418 348.512 91.7861C347.482 91.1541 346.631 90.2675 346.043 89.2117Z" fill="#FF6584"/>
<path d="M361.741 97.269H342.863V126.718H361.741V97.269Z" fill="#FF6584"/>
<path opacity="0.1" d="M362.166 96.4199H343.288V125.868H362.166V96.4199Z" fill="black"/>
<path d="M313.024 204.111C313.024 204.111 311.012 209.629 306.232 210.402C301.452 211.175 298.692 212.406 298.692 212.406L310.018 219.703L316.059 218.947C316.059 218.947 316.811 211.145 319.328 209.383C321.845 207.621 313.024 204.111 313.024 204.111Z" fill="#FBBEBE"/>
<path d="M394.836 204.111C394.836 204.111 396.849 209.629 401.629 210.402C406.409 211.175 409.177 212.418 409.177 212.418L397.851 219.716L391.81 218.96C391.81 218.96 391.058 211.158 388.541 209.396C386.024 207.634 394.836 204.111 394.836 204.111Z" fill="#FBBEBE"/>
<path d="M339.718 155.283C339.718 155.283 336.695 156.794 335.689 159.813C335.689 159.813 330.17 161.574 327.131 166.359C327.131 166.359 323.357 170.383 322.852 172.4C322.346 174.416 316.56 186.51 316.56 186.51C316.56 186.51 310.774 205.384 307.752 207.401C307.752 207.401 317.316 205.384 319.078 214.949C319.078 214.949 321.345 214.949 323.862 206.14C326.379 197.331 332.416 186.51 332.416 186.51C332.416 186.51 334.432 178.958 336.194 177.702C337.956 176.445 340.724 170.655 343.241 172.162C345.758 173.669 362.37 171.911 362.37 171.911C362.37 171.911 372.184 176.441 372.435 179.463C372.685 182.486 374.451 182.732 374.702 185.25C374.952 187.767 384.266 207.651 384.266 207.651C384.266 207.651 386.028 213.17 386.529 214.443C386.529 214.443 392.069 201.105 399.366 208.653C399.366 208.653 399.116 203.618 396.849 200.587C394.582 197.556 384.767 173.907 384.767 173.907C384.767 173.907 383.761 170.383 382.755 169.377C381.749 168.371 373.946 160.318 371.183 160.318C371.183 160.318 369.671 156.54 367.91 156.039L339.718 155.283Z" fill="#696880"/>
<path d="M317.065 217.198C315.099 217.988 312.961 218.254 310.861 217.972C308.761 217.689 306.769 216.867 305.081 215.585C303.441 214.327 301.645 213.287 299.737 212.491C297.071 211.412 293.874 210.61 292.902 212.418C291.14 215.687 314.298 223.745 314.298 223.745C314.298 223.745 317.316 221.979 317.065 217.198Z" fill="#696880"/>
<path d="M390.808 217.198C392.774 217.988 394.912 218.254 397.012 217.972C399.113 217.689 401.104 216.867 402.792 215.585C404.432 214.327 406.229 213.287 408.137 212.491C410.802 211.412 413.999 210.61 414.971 212.418C416.733 215.687 393.576 223.745 393.576 223.745C393.576 223.745 390.557 221.979 390.808 217.198Z" fill="#696880"/>
<path d="M347.945 113.884C347.847 114.759 347.563 115.706 346.815 116.173C346.204 116.555 345.431 116.521 344.727 116.669C343.986 116.853 343.299 117.208 342.722 117.707C342.144 118.206 341.692 118.833 341.403 119.539C340.839 120.964 340.73 122.528 341.089 124.018C341.253 124.749 341.467 125.468 341.73 126.17C342.473 128.259 343.364 130.326 344.74 132.066C345.917 133.445 347.241 134.692 348.688 135.785C349.583 136.515 350.509 137.262 351.612 137.606C352.362 137.805 353.134 137.906 353.909 137.908C354.864 137.954 355.879 137.984 356.707 137.509C357.98 136.774 358.362 135.148 359.05 133.849C359.64 132.741 360.515 131.807 361.062 130.678C361.45 129.793 361.735 128.865 361.911 127.915L363.087 122.689C363.512 120.796 363.902 118.656 362.832 117.03C362.758 116.896 362.649 116.783 362.518 116.703C362.315 116.621 362.093 116.597 361.877 116.635C360.524 116.726 359.173 116.418 357.993 115.748C357.806 115.655 357.64 115.525 357.505 115.366C357.331 115.097 357.228 114.789 357.203 114.47C357.089 113.822 356.906 113.187 356.66 112.577C356.59 112.359 356.462 112.164 356.291 112.012C356.111 111.899 355.908 111.831 355.696 111.813C353.879 111.517 352.046 111.324 350.207 111.235C349.6 111.21 348.692 110.968 348.28 111.499C347.868 112.029 348.013 113.248 347.945 113.884Z" fill="#FBBEBE"/>
<path opacity="0.1" d="M347.945 113.884C347.847 114.759 347.563 115.706 346.815 116.173C346.204 116.555 345.431 116.521 344.727 116.669C343.986 116.853 343.299 117.208 342.722 117.707C342.144 118.206 341.692 118.833 341.403 119.539C340.839 120.964 340.73 122.528 341.089 124.018C341.253 124.749 341.467 125.468 341.73 126.17C342.473 128.259 343.364 130.326 344.74 132.066C345.917 133.445 347.241 134.692 348.688 135.785C349.583 136.515 350.509 137.262 351.612 137.606C352.362 137.805 353.134 137.906 353.909 137.908C354.864 137.954 355.879 137.984 356.707 137.509C357.98 136.774 358.362 135.148 359.05 133.849C359.64 132.741 360.515 131.807 361.062 130.678C361.45 129.793 361.735 128.865 361.911 127.915L363.087 122.689C363.512 120.796 363.902 118.656 362.832 117.03C362.758 116.896 362.649 116.783 362.518 116.703C362.315 116.621 362.093 116.597 361.877 116.635C360.524 116.726 359.173 116.418 357.993 115.748C357.806 115.655 357.64 115.525 357.505 115.366C357.331 115.097 357.228 114.789 357.203 114.47C357.089 113.822 356.906 113.187 356.66 112.577C356.59 112.359 356.462 112.164 356.291 112.012C356.111 111.899 355.908 111.831 355.696 111.813C353.879 111.517 352.046 111.324 350.207 111.235C349.6 111.21 348.692 110.968 348.28 111.499C347.868 112.029 348.013 113.248 347.945 113.884Z" fill="black"/>
<path d="M344.536 116.89C343.551 116.597 342.532 116.436 341.505 116.41C339.077 116.351 336.483 117.191 335.078 119.174C334.127 120.603 333.777 122.35 334.105 124.035C334.445 125.707 335.205 127.266 336.313 128.564C336.954 129.245 337.523 129.991 338.011 130.789C338.682 132.062 338.699 133.582 338.86 135.034C339.285 138.477 340.753 141.72 341.339 145.141C341.925 148.563 341.416 152.536 338.711 154.718C338.257 155.084 337.71 155.466 337.671 156.047C337.608 156.977 338.818 157.376 339.747 157.461C342.528 157.728 345.381 157.987 348.08 157.27C349.201 156.973 350.275 156.51 351.413 156.298C354.304 155.759 357.208 156.862 360.094 157.397C362.187 157.74 364.303 157.912 366.424 157.911C366.919 157.955 367.417 157.89 367.884 157.72C368.115 157.629 368.311 157.468 368.443 157.259C368.576 157.05 368.639 156.804 368.623 156.557C368.53 156.236 368.358 155.944 368.122 155.708C366.661 153.899 366.216 151.505 365.817 149.217L364.501 141.512C363.783 137.403 363.117 132.941 365.061 129.248C366.462 126.594 369.034 124.727 370.512 122.116C371.034 121.325 371.271 120.38 371.183 119.437C370.962 118.125 369.777 117.187 368.563 116.635C366.23 115.592 363.583 115.496 361.181 116.368C361.223 118.206 360.756 120.065 360.451 121.887L359.937 124.858C359.677 126.609 359.294 128.34 358.791 130.037C358.604 130.715 358.292 131.351 357.87 131.914C357.416 132.418 356.863 132.821 356.244 133.098C354.903 133.753 353.428 134.089 351.935 134.079C351.289 134.092 350.646 133.994 350.033 133.79C349.023 133.425 348.204 132.673 347.414 131.943C347.154 131.723 346.922 131.472 346.722 131.196C346.514 130.842 346.355 130.46 346.251 130.063C345.907 129.025 345.637 127.964 345.444 126.887C345.313 126.064 345.274 125.227 345.215 124.395C345.028 121.984 345.032 119.255 344.536 116.89Z" fill="#F2F2F2"/>
<path d="M341.98 165.603C341.98 165.603 340.974 178.941 347.265 181.208C353.557 183.475 348.021 170.133 348.021 170.133L346.009 166.104L341.98 165.603Z" fill="#FBBEBE"/>
<path d="M363.376 165.603C363.376 165.603 364.382 178.941 358.09 181.208C351.799 183.475 357.335 170.133 357.335 170.133L359.347 166.104L363.376 165.603Z" fill="#FBBEBE"/>
<path opacity="0.1" d="M336.445 121.054L334.432 124.327C334.432 124.327 336.194 135.654 336.445 137.666C336.66 139.115 336.997 140.543 337.451 141.936C337.451 141.936 337.701 147.977 337.701 150.24C337.701 152.503 338.975 156.281 338.975 156.281C339.151 158.42 339.579 160.532 340.248 162.572C341.254 165.344 342.265 168.613 342.265 168.613C342.265 168.613 343.538 165.089 348.556 170.375C349.117 169.804 349.431 169.035 349.431 168.235C349.431 167.435 349.117 166.666 348.556 166.095C348.556 166.095 347.045 159.303 347.045 155.78C347.045 152.256 344.277 135.403 344.277 135.403C344.277 135.403 342.485 116.27 336.445 121.054Z" fill="black"/>
<path d="M335.948 120.804L333.936 124.073C333.936 124.073 335.697 135.399 335.948 137.415C336.165 138.866 336.503 140.296 336.958 141.69C336.958 141.69 337.221 147.731 337.221 150.002C337.221 152.273 338.495 156.043 338.495 156.043C338.673 158.183 339.1 160.294 339.768 162.334C340.775 165.102 341.781 168.375 341.781 168.375C341.781 168.375 343.054 164.852 348.072 170.137C348.634 169.567 348.949 168.798 348.949 167.997C348.949 167.197 348.634 166.428 348.072 165.858C348.072 165.858 346.561 159.066 346.561 155.538C346.561 152.01 343.793 135.161 343.793 135.161C343.793 135.161 341.98 116.041 335.948 120.804Z" fill="#F2F2F2"/>
<path opacity="0.1" d="M369.162 119.038L370.435 120.537C370.435 120.537 371.921 129.108 368.648 139.928L367.642 149.747C367.642 149.747 365.88 158.051 365.626 160.067C365.371 162.084 365.375 162.33 364.874 163.086C364.72 163.262 364.635 163.488 364.635 163.722C364.635 163.957 364.72 164.183 364.874 164.359L363.363 169.899C363.363 169.899 361.096 167.131 356.571 170.655C356.571 170.655 355.297 168.638 356.32 166.877C357.343 165.115 357.326 164.359 357.076 163.858C356.825 163.357 358.082 160.836 358.082 160.335C358.082 159.834 359.844 148.253 359.844 148.253C359.844 148.253 360.599 136.927 361.355 133.153C361.818 130.831 361.805 125.652 361.729 122.01C361.648 118.219 366.237 116.16 368.945 118.83C369.018 118.885 369.09 118.962 369.162 119.038Z" fill="black"/>
<path d="M369.909 118.537L371.182 120.036C371.182 120.036 372.664 128.602 369.395 139.427L368.389 149.242C368.389 149.242 366.627 157.55 366.373 159.562C366.118 161.574 366.122 161.829 365.617 162.58C365.466 162.758 365.382 162.984 365.382 163.217C365.382 163.451 365.466 163.677 365.617 163.854L364.11 169.373C364.11 169.373 361.843 166.605 357.318 170.128C357.318 170.128 356.044 168.116 357.067 166.354C358.09 164.593 358.074 163.837 357.819 163.332C357.564 162.827 358.829 160.314 358.829 159.808C358.829 159.303 360.591 147.727 360.591 147.727C360.591 147.727 361.346 136.401 362.098 132.627C362.849 128.853 362.353 117.527 362.353 117.527C362.353 117.527 366.394 114.767 369.909 118.537Z" fill="#F2F2F2"/>
<path d="M353.056 115.014C358.617 115.014 363.125 110.505 363.125 104.944C363.125 99.383 358.617 94.8747 353.056 94.8747C347.495 94.8747 342.986 99.383 342.986 104.944C342.986 110.505 347.495 115.014 353.056 115.014Z" fill="#FBBEBE"/>
<path opacity="0.1" d="M358.307 89.8272C357.823 91.1784 356.938 92.3495 355.77 93.1839C354.602 94.0184 353.208 94.4764 351.773 94.4967C350.338 94.517 348.931 94.0986 347.74 93.2976C346.549 92.4965 345.631 91.3509 345.109 90.014C349.036 88.4348 353.056 89.8442 353.056 89.8442C355.051 89.1353 356.8 89.2032 358.307 89.8272Z" fill="black"/>
<path d="M353.056 90.3494C353.056 90.3494 333.677 83.5571 338.457 116.525C338.457 116.525 342.736 119.293 346.009 117.531C346.009 117.531 343.742 94.6073 352.551 95.6346C361.359 96.6619 359.852 117.026 359.852 117.026C359.852 117.026 364.887 118.537 366.394 115.752C367.901 112.968 365.893 85.8156 353.056 90.3494Z" fill="#FF6584"/>
<path opacity="0.1" d="M352.551 94.1233C346.505 93.4313 345.678 103.998 345.758 110.701C345.835 104.04 346.955 94.9936 352.551 95.6346C358.842 96.352 359.869 106.948 359.946 112.951C360.014 107.445 359.411 94.9087 352.551 94.1233Z" fill="black"/>
<path opacity="0.1" d="M338.457 115.014C338.02 112.121 337.769 109.202 337.705 106.277C337.684 109.702 337.935 113.123 338.457 116.508C338.457 116.508 342.736 119.276 346.009 117.514C346.009 117.514 345.954 116.971 345.894 116.058C342.638 117.739 338.457 115.014 338.457 115.014Z" fill="black"/>
<path opacity="0.1" d="M366.394 114.258C364.989 116.835 360.527 115.706 359.92 115.532C359.89 116.465 359.852 117.022 359.852 117.022C359.852 117.022 364.887 118.533 366.394 115.748C366.708 115.175 366.869 113.566 366.818 111.414C366.776 112.819 366.627 113.829 366.394 114.258Z" fill="black"/>
<path d="M418.002 277.161C419.165 275.009 417.845 272.368 416.33 270.45C414.814 268.531 412.963 266.531 413.001 264.082C413.061 260.567 416.792 258.491 419.794 256.627C422.007 255.243 424.049 253.601 425.877 251.737C426.64 251.019 427.272 250.172 427.745 249.237C428.36 247.861 428.343 246.295 428.305 244.788C428.178 239.77 427.93 234.756 427.562 229.747" stroke="#3F3D56" stroke-width="4" stroke-miterlimit="10"/>
<path d="M433.208 229.475C433.166 228.556 432.893 227.663 432.415 226.877C431.936 226.091 431.268 225.439 430.47 224.98L429.243 227.408L429.282 224.466C428.695 224.295 428.084 224.222 427.473 224.25C426.39 224.3 425.346 224.671 424.473 225.315C423.6 225.959 422.938 226.847 422.57 227.868C422.202 228.888 422.145 229.995 422.406 231.047C422.667 232.1 423.234 233.052 424.035 233.783C424.837 234.513 425.837 234.989 426.91 235.152C427.982 235.314 429.079 235.154 430.061 234.693C431.042 234.232 431.865 233.49 432.426 232.562C432.986 231.633 433.258 230.559 433.208 229.475Z" fill="#2A98C7"/>
<path d="M423.427 266.599C422.874 267.672 421.983 268.533 420.891 269.048C419.799 269.563 418.567 269.703 417.387 269.446C416.208 269.19 415.145 268.552 414.365 267.63C413.585 266.708 413.131 265.555 413.074 264.349C413.035 263.59 413.156 262.83 413.43 262.121C413.831 261.081 414.539 260.189 415.459 259.561C416.38 258.933 417.469 258.601 418.583 258.607C419.697 258.614 420.783 258.959 421.696 259.597C422.609 260.235 423.306 261.136 423.695 262.18L420.269 264.969L424.035 264.095C424.036 264.966 423.828 265.825 423.427 266.599Z" fill="#2A98C7"/>
<path d="M420.719 255.948C419.999 255.982 419.28 255.873 418.602 255.629C417.924 255.384 417.301 255.009 416.769 254.524C416.236 254.038 415.804 253.453 415.498 252.801C415.192 252.148 415.017 251.442 414.984 250.722C414.942 249.864 415.105 249.009 415.459 248.226C415.789 247.494 416.275 246.843 416.883 246.318C417.491 245.793 418.206 245.407 418.979 245.187L418.953 247.449L420.193 244.987C421.646 244.92 423.066 245.433 424.14 246.413C425.215 247.393 425.856 248.76 425.924 250.213C425.957 250.846 425.878 251.48 425.69 252.085C425.358 253.161 424.703 254.11 423.814 254.801C422.925 255.492 421.844 255.893 420.719 255.948Z" fill="#2A98C7"/>
<path d="M434.036 247.089C433.316 247.122 432.597 247.014 431.919 246.769C431.241 246.525 430.618 246.149 430.086 245.664C429.553 245.179 429.121 244.593 428.815 243.941C428.509 243.289 428.334 242.583 428.301 241.863C428.255 240.967 428.433 240.074 428.819 239.265C429.14 238.584 429.597 237.977 430.163 237.481C430.729 236.985 431.391 236.61 432.108 236.381C432.825 236.152 433.581 236.073 434.33 236.15C435.079 236.226 435.804 236.455 436.46 236.824L435.492 239.477L437.483 237.562C438.552 238.541 439.19 239.902 439.258 241.349C439.283 241.857 439.235 242.366 439.118 242.86C438.846 244.022 438.202 245.063 437.285 245.826C436.368 246.589 435.228 247.032 434.036 247.089Z" fill="#2A98C7"/>
<path opacity="0.1" d="M432.474 230.936C431.2 231.076 429.973 231.466 428.704 231.547C427.435 231.628 426.038 231.322 425.236 230.333C424.862 229.759 424.524 229.164 424.221 228.55C423.874 228.01 423.401 227.562 422.842 227.247C422.408 228.092 422.205 229.036 422.252 229.985C422.311 231.317 422.854 232.582 423.779 233.542C424.703 234.503 425.946 235.094 427.275 235.205C428.604 235.316 429.927 234.939 430.998 234.144C432.069 233.35 432.814 232.193 433.094 230.889C432.886 230.898 432.678 230.915 432.474 230.936Z" fill="black"/>
<path opacity="0.1" d="M434.036 247.089C433.316 247.122 432.597 247.014 431.919 246.769C431.241 246.525 430.618 246.149 430.086 245.664C429.553 245.179 429.121 244.593 428.815 243.941C428.509 243.289 428.334 242.583 428.301 241.863C428.255 240.967 428.433 240.074 428.819 239.265C429.254 239.558 429.629 239.933 429.923 240.368C430.313 240.959 430.547 241.642 431.009 242.181C431.858 243.183 433.323 243.514 434.647 243.455C435.972 243.395 437.245 243.03 438.566 242.899C438.748 242.899 438.935 242.869 439.117 242.865C438.845 244.025 438.201 245.066 437.284 245.828C436.367 246.59 435.227 247.033 434.036 247.089Z" fill="black"/>
<path opacity="0.1" d="M420.719 255.948C419.999 255.982 419.28 255.873 418.602 255.629C417.924 255.384 417.301 255.009 416.769 254.524C416.236 254.038 415.804 253.453 415.498 252.801C415.192 252.148 415.017 251.442 414.984 250.722C414.942 249.864 415.105 249.009 415.459 248.226C415.904 248.526 416.292 248.903 416.606 249.338C417.03 249.941 417.298 250.612 417.794 251.189C418.72 252.221 420.278 252.582 421.678 252.552C423.079 252.522 424.344 252.187 425.694 252.085C425.363 253.162 424.707 254.111 423.817 254.802C422.926 255.493 421.845 255.893 420.719 255.948Z" fill="black"/>
<path opacity="0.1" d="M423.427 266.599C422.874 267.672 421.983 268.533 420.891 269.048C419.799 269.563 418.567 269.703 417.387 269.446C416.208 269.19 415.145 268.552 414.365 267.63C413.585 266.708 413.131 265.555 413.074 264.349C413.035 263.59 413.156 262.83 413.43 262.121C413.881 262.418 414.286 262.78 414.632 263.195C415.154 263.831 415.481 264.553 416.1 265.143C417.221 266.247 419.034 266.701 420.643 266.744C421.573 266.749 422.503 266.701 423.427 266.599Z" fill="black"/>
<path d="M409.733 274.682C409.733 274.682 414.058 274.55 415.366 273.621C416.673 272.691 422.022 271.583 422.349 273.073C422.676 274.563 428.853 280.485 423.967 280.523C419.08 280.561 412.611 279.763 411.308 278.97C410.004 278.176 409.733 274.682 409.733 274.682Z" fill="#656380"/>
<path opacity="0.2" d="M424.052 280.005C419.165 280.044 412.696 279.241 411.393 278.452C410.403 277.845 410.009 275.68 409.877 274.678H409.733C409.733 274.678 410.004 278.171 411.308 278.965C412.611 279.759 419.08 280.557 423.967 280.519C425.376 280.519 425.864 280.005 425.839 279.245C425.643 279.717 425.096 279.997 424.052 280.005Z" fill="black"/>
</g>
<defs>
<clipPath id="clip0_3_2">
<rect width="439.266" height="300" fill="white"/>
</clipPath>
</defs>
</svg>
