<svg width="632" height="298" viewBox="0 0 632 298" fill="none" xmlns="http://www.w3.org/2000/svg">
<path d="M574.346 287.255C575.469 277.817 576.03 268.276 576.03 258.531C576.03 124.959 467.714 16.6429 334.142 16.6429C200.571 16.6429 92.2546 124.959 92.2546 258.531C92.2546 268.225 92.8158 277.817 93.9383 287.255H574.346Z" fill="#2A98C7"/>
<path d="M341.745 57.561H338.888C338.327 47.6121 330.062 39.7039 319.96 39.7039C313.378 39.7039 307.613 43.0202 304.245 48.1223C303.072 47.1529 301.592 46.5916 299.959 46.5916C297.715 46.5916 295.725 47.7141 294.449 49.3978C292.919 48.5304 291.184 48.0712 289.296 48.0712C283.786 48.0712 279.296 52.2549 278.684 57.6121H276.031C273.99 57.6121 272.306 59.2957 272.306 61.3365C272.306 63.3774 273.99 65.061 276.031 65.061H341.694C343.735 65.061 345.419 63.3774 345.419 61.3365C345.47 59.1937 343.837 57.561 341.745 57.561Z" fill="#78B4D8"/>
<path d="M69.4389 102.857H66.5818C66.0205 92.9082 57.7552 85 47.6532 85C41.0715 85 35.3062 88.3163 31.9389 93.4184C30.7654 92.449 29.2858 91.8878 27.6531 91.8878C25.4082 91.8878 23.4184 93.0102 22.1429 94.6939C20.6123 93.8265 18.8776 93.3673 16.9898 93.3673C11.4796 93.3673 6.98981 97.551 6.37756 102.908H3.72449C1.68367 102.908 0 104.592 0 106.633C0 108.673 1.68367 110.357 3.72449 110.357H69.3879C71.4287 110.357 73.1124 108.673 73.1124 106.633C73.1634 104.49 71.5308 102.857 69.4389 102.857Z" fill="#78B4D8"/>
<path d="M627.439 107.857H624.582C624.021 97.9082 615.755 90 605.653 90C599.072 90 593.306 93.3163 589.939 98.4184C588.765 97.449 587.286 96.8878 585.653 96.8878C583.408 96.8878 581.418 98.0102 580.143 99.6939C578.612 98.8265 576.878 98.3673 574.99 98.3673C569.48 98.3673 564.99 102.551 564.378 107.908H561.724C559.684 107.908 558 109.592 558 111.633C558 113.673 559.684 115.357 561.724 115.357H627.388C629.429 115.357 631.112 113.673 631.112 111.633C631.163 109.49 629.531 107.857 627.439 107.857Z" fill="#78B4D8"/>
<path d="M495.827 71.8975H552.919V285.265H495.827V71.8975Z" fill="#0085BB"/>
<path d="M412.817 124.602H399.603V94.6528H320.674V124.602H307.409V88.3263H301.133V71.8977H290.725V41.6936H282.001V71.8977H271.541V88.3263H265.266V148.122H228.582V69.4998H179.449V97.663H144.347V80.5712H115.317V285.214H137.409H144.347H179.449H200.011H228.582H265.266H307.409H320.674H399.603H412.817H446.899V71.8977H412.817V124.602Z" fill="#0085BB"/>
<path d="M297.154 92.7648H302.97V98.5811H297.154V92.7648Z" fill="#58A6CF"/>
<path d="M287.664 92.7648H293.48V98.5811H287.664V92.7648Z" fill="#58A6CF"/>
<path d="M278.225 92.7648H284.041V98.5811H278.225V92.7648Z" fill="#58A6CF"/>
<path d="M297.154 102.765H302.97V108.581H297.154V102.765Z" fill="#58A6CF"/>
<path d="M287.664 102.765H293.48V108.581H287.664V102.765Z" fill="#58A6CF"/>
<path d="M325.572 98.5814H332.459V105.469H325.572V98.5814Z" fill="#58A6CF"/>
<path d="M338.786 98.5814H345.673V105.469H338.786V98.5814Z" fill="#58A6CF"/>
<path d="M351.949 98.5814H358.837V105.469H351.949V98.5814Z" fill="#58A6CF"/>
<path d="M325.572 110.52H332.459V117.408H325.572V110.52Z" fill="#58A6CF"/>
<path d="M338.786 110.52H345.673V117.408H338.786V110.52Z" fill="#58A6CF"/>
<path d="M351.949 110.52H358.837V117.408H351.949V110.52Z" fill="#58A6CF"/>
<path d="M325.572 122.459H332.459V129.347H325.572V122.459Z" fill="#58A6CF"/>
<path d="M351.949 122.459H358.837V129.347H351.949V122.459Z" fill="#58A6CF"/>
<path d="M365.112 98.5814H372.001V105.469H365.112V98.5814Z" fill="#58A6CF"/>
<path d="M416.745 76.4385H421.796V81.4895H416.745V76.4385Z" fill="#58A6CF"/>
<path d="M416.745 84.8571H421.796V89.9081H416.745V84.8571Z" fill="#58A6CF"/>
<path d="M425.419 76.4385H430.469V81.4895H425.419V76.4385Z" fill="#58A6CF"/>
<path d="M542.051 76.8975H547.102V81.9486H542.051V76.8975Z" fill="#58A6CF"/>
<path d="M532.561 76.8975H537.612V81.9486H532.561V76.8975Z" fill="#58A6CF"/>
<path d="M523.122 76.8975H528.173V81.9486H523.122V76.8975Z" fill="#58A6CF"/>
<path d="M513.633 76.8975H518.684V81.9486H513.633V76.8975Z" fill="#58A6CF"/>
<path d="M504.144 76.8975H509.194V81.9486H504.144V76.8975Z" fill="#58A6CF"/>
<path d="M542.051 87.8161H547.102V92.8671H542.051V87.8161Z" fill="#58A6CF"/>
<path d="M523.122 87.8161H528.173V92.8671H523.122V87.8161Z" fill="#58A6CF"/>
<path d="M509.806 115.163V129.143H477.357V106.133V79.398H462.153V106.133H431.898V170.367H397.867V121.541H392.102V108.072H382.408H374.347H364.704V121.541H348.428V151.184H331.796V126.694H273.581V151.184H261.286V108.072H229.806V187.663H184.449V108.072H131.592V187.663V282.459H184.449H229.806H261.286H273.581H346.643H358.888H397.867H431.898H458.326H477.357H509.806H516.286H536.694V115.163H509.806Z" fill="#006EA0"/>
<path d="M279.5 132.204H284.653V137.357H279.5V132.204Z" fill="#0085BB"/>
<path d="M289.296 132.204H294.449V137.357H289.296V132.204Z" fill="#0085BB"/>
<path d="M299.092 132.204H304.245V137.357H299.092V132.204Z" fill="#0085BB"/>
<path d="M308.938 132.204H314.092V137.357H308.938V132.204Z" fill="#0085BB"/>
<path d="M279.5 140.113H284.653V145.266H279.5V140.113Z" fill="#0085BB"/>
<path d="M289.296 140.113H294.449V145.266H289.296V140.113Z" fill="#0085BB"/>
<path d="M308.938 140.113H314.092V145.266H308.938V140.113Z" fill="#0085BB"/>
<path d="M84.9084 274.347H583.327C589.653 274.347 594.806 279.5 594.806 285.826C594.806 292.153 589.653 297.306 583.327 297.306H84.9084C78.5818 297.306 73.4288 292.153 73.4288 285.826C73.4288 279.5 78.5818 274.347 84.9084 274.347Z" fill="#008FC1"/>
<path d="M206.184 118.786H260.163V285.265H206.184V118.786Z" fill="#78B4D8"/>
<path d="M211.337 139.755H255.01V201.796H211.337V139.755Z" fill="#58A6CF"/>
<path d="M238.684 139.755L221.643 201.796H215.826L232.816 139.755H238.684Z" fill="#93C1DF"/>
<path d="M243.735 156.388L242 162.715C241.643 163.939 240.571 164.806 239.296 164.806C237.459 164.806 236.081 163.021 236.592 161.235L238.326 154.908C238.683 153.684 239.755 152.817 241.03 152.817C242.867 152.817 244.245 154.602 243.735 156.388Z" fill="#93C1DF"/>
<path d="M107.153 118.786H206.235V285.265H107.153V118.786Z" fill="#93C1DF"/>
<path d="M107.153 118.786H206.235V124.653H107.153V118.786Z" fill="#78B4D8"/>
<path d="M206.184 118.786H260.163V124.653H206.184V118.786Z" fill="#58A6CF"/>
<path d="M116.081 139.755H197.255V201.796H116.081V139.755Z" fill="#78B4D8"/>
<path d="M155.01 140.112L130.01 201.796H143.071L168.122 140.112H155.01Z" fill="#ACCDE5"/>
<path d="M169.551 150.316L158.683 177.102C157.51 180.061 159.653 183.225 162.816 183.225C164.653 183.225 166.286 182.102 166.949 180.418L177.816 153.633C178.99 150.674 176.847 147.51 173.684 147.51C171.898 147.561 170.265 148.633 169.551 150.316Z" fill="#ACCDE5"/>
<path d="M269.449 104.653H162.153C158.275 104.653 155.112 107.816 155.112 111.694C155.112 115.572 158.275 118.735 162.153 118.735H269.449C273.326 118.735 276.49 115.572 276.49 111.694C276.541 107.816 273.377 104.653 269.449 104.653Z" fill="#93C1DF"/>
<path d="M210.316 104.653H103.02C99.1428 104.653 95.9795 107.816 95.9795 111.694C95.9795 115.572 99.1428 118.735 103.02 118.735H210.316C214.194 118.735 217.357 115.572 217.357 111.694C217.357 107.816 214.194 104.653 210.316 104.653Z" fill="#ACCDE5"/>
<path d="M107.153 209.092H206.235V215.98H107.153V209.092Z" fill="#ACCDE5"/>
<path d="M107.153 221.49H206.235V228.378H107.153V221.49Z" fill="#ACCDE5"/>
<path d="M206.184 209.092H260.163V215.98H206.184V209.092Z" fill="#93C1DF"/>
<path d="M206.184 221.49H260.163V228.378H206.184V221.49Z" fill="#93C1DF"/>
<path d="M435.214 210.571H438.275V217.051H435.214V210.571Z" fill="#5F6E7D"/>
<path d="M438.276 210.571H440.674V217.051H438.276V210.571Z" fill="#4C5966"/>
<path d="M456.592 196.898H412.562V212.714H453.531L456.592 196.898Z" fill="#F69EA1"/>
<path d="M417.969 206.388H443.122V212.714H417.969V206.388Z" fill="#DD8A90"/>
<path d="M304.449 260.367C304.755 250.367 300.164 241.541 293.225 237.255L293.276 234.755L284.143 234.551C272.51 234.194 262.765 245.214 262.306 259.143C261.898 273.072 270.98 284.653 282.612 285.01L291.745 285.266L291.796 282.765C298.99 278.888 304.143 270.419 304.449 260.367Z" fill="#4C5966"/>
<path d="M293.229 234.823C295.995 234.907 298.714 235.642 301.231 236.986C303.748 238.329 306.013 240.255 307.898 242.654C309.782 245.052 311.249 247.877 312.215 250.965C313.181 254.054 313.626 257.346 313.526 260.654C313.425 263.962 312.781 267.222 311.63 270.246C310.479 273.27 308.843 276 306.816 278.28C304.789 280.56 302.411 282.345 299.818 283.534C297.224 284.722 294.466 285.29 291.7 285.206C286.114 285.037 280.838 282.22 277.032 277.376C273.225 272.532 271.201 266.057 271.404 259.376C271.606 252.694 274.02 246.354 278.113 241.75C282.206 237.145 287.644 234.654 293.229 234.823Z" fill="#5F6E7D"/>
<path d="M292.511 274.347C286.898 274.347 282.204 267.714 282.204 259.857C282.204 252 286.949 245.367 292.511 245.367C298.123 245.367 302.817 252 302.817 259.857C302.817 267.714 298.072 274.347 292.511 274.347Z" fill="#D1D3D4"/>
<path d="M292.51 266.745C289.857 266.745 287.612 263.582 287.612 259.858C287.612 256.133 289.857 252.97 292.51 252.97C295.163 252.97 297.408 256.133 297.408 259.858C297.408 263.633 295.163 266.745 292.51 266.745Z" fill="#E4E5E6"/>
<path d="M405.571 260.368C405.877 250.368 401.285 241.541 394.347 237.256L394.398 234.756L385.265 234.501C373.633 234.143 363.888 245.164 363.429 259.092C363.02 273.02 372.102 284.602 383.735 284.959L392.867 285.214L392.918 282.714C400.163 278.888 405.265 270.418 405.571 260.368Z" fill="#4C5966"/>
<path d="M394.383 234.86C397.149 234.944 399.868 235.679 402.385 237.022C404.901 238.366 407.167 240.292 409.051 242.69C410.936 245.089 412.403 247.913 413.369 251.002C414.334 254.09 414.78 257.382 414.679 260.69C414.579 263.999 413.935 267.258 412.783 270.282C411.632 273.306 409.997 276.036 407.97 278.316C405.943 280.596 403.565 282.381 400.972 283.57C398.378 284.758 395.619 285.326 392.854 285.242C387.268 285.073 381.992 282.256 378.186 277.412C374.379 272.568 372.355 266.093 372.558 259.412C372.761 252.731 375.174 246.391 379.267 241.786C383.36 237.182 388.798 234.69 394.383 234.86Z" fill="#5F6E7D"/>
<path d="M393.633 274.347C388.021 274.347 383.327 267.714 383.327 259.857C383.327 252 388.072 245.367 393.633 245.367C399.194 245.367 403.939 252 403.939 259.857C403.99 267.714 399.245 274.347 393.633 274.347Z" fill="#D1D3D4"/>
<path d="M393.633 266.745C390.98 266.745 388.735 263.581 388.735 259.857C388.735 256.132 390.98 252.969 393.633 252.969C396.286 252.969 398.53 256.132 398.53 259.857C398.581 263.632 396.286 266.745 393.633 266.745Z" fill="#E4E5E6"/>
<path d="M263.122 216.898C246.847 216.898 233.633 230.112 233.633 246.388V269.857H250.112H258.225H317.714H353.531H408.378H414.347H418.276V216.898H263.122Z" fill="#F69EA1"/>
<path d="M303.072 226.898H447.562V269.908H303.072V226.898Z" fill="#C00848"/>
<path d="M428.071 260.01C428.071 250.01 423.173 241.337 416.132 237.255V234.755H407C395.367 234.755 385.929 246.031 385.929 259.959C385.929 273.888 395.367 285.163 407 285.163H416.132V282.663C423.173 278.684 428.071 270.01 428.071 260.01Z" fill="#4C5966"/>
<path d="M437.204 260.01C437.204 266.695 434.984 273.106 431.032 277.832C427.081 282.559 421.721 285.215 416.133 285.215C410.544 285.215 405.185 282.559 401.233 277.832C397.281 273.106 395.061 266.695 395.061 260.01C395.061 253.326 397.281 246.915 401.233 242.188C405.185 237.462 410.544 234.806 416.133 234.806C421.721 234.806 427.081 237.462 431.032 242.188C434.984 246.915 437.204 253.326 437.204 260.01Z" fill="#5F6E7D"/>
<path d="M416.133 274.5C410.521 274.5 405.827 267.867 405.827 260.01C405.827 252.153 410.572 245.521 416.133 245.521C421.694 245.521 426.439 252.153 426.439 260.01C426.439 267.867 421.745 274.5 416.133 274.5Z" fill="#D1D3D4"/>
<path d="M416.133 266.898C413.48 266.898 411.235 263.735 411.235 260.01C411.235 256.286 413.48 253.122 416.133 253.122C418.786 253.122 421.031 256.286 421.031 260.01C421.031 263.735 418.786 266.898 416.133 266.898Z" fill="#E4E5E6"/>
<path d="M337.715 260.368C338.021 250.368 333.429 241.541 326.49 237.256L326.541 234.756L317.408 234.501C305.776 234.143 296.031 245.164 295.572 259.092C295.163 273.02 304.245 284.602 315.878 284.959L325.01 285.214L325.062 282.714C332.255 278.888 337.409 270.418 337.715 260.368Z" fill="#4C5966"/>
<path d="M326.497 234.827C329.262 234.911 331.981 235.646 334.498 236.989C337.015 238.333 339.28 240.259 341.165 242.657C343.05 245.056 344.517 247.88 345.482 250.969C346.448 254.057 346.893 257.349 346.793 260.658C346.692 263.966 346.048 267.225 344.897 270.249C343.746 273.273 342.11 276.003 340.083 278.283C338.057 280.563 335.679 282.348 333.085 283.537C330.491 284.725 327.733 285.293 324.967 285.209C319.381 285.04 314.105 282.223 310.299 277.379C306.492 272.535 304.468 266.06 304.671 259.379C304.874 252.698 307.287 246.358 311.38 241.753C315.473 237.149 320.911 234.657 326.497 234.827Z" fill="#5F6E7D"/>
<path d="M325.775 274.347C320.163 274.347 315.469 267.714 315.469 259.857C315.469 252 320.214 245.367 325.775 245.367C331.337 245.367 336.081 252 336.081 259.857C336.081 267.714 331.337 274.347 325.775 274.347Z" fill="#D1D3D4"/>
<path d="M325.775 266.745C323.122 266.745 320.878 263.581 320.878 259.857C320.878 256.132 323.122 252.969 325.775 252.969C328.429 252.969 330.673 256.132 330.673 259.857C330.673 263.632 328.429 266.745 325.775 266.745Z" fill="#E4E5E6"/>
<path d="M279.551 246.439V269.908H296.031C298.582 269.908 300.521 267.612 300.163 265.061C299.908 263.378 299.755 261.643 299.755 259.857C299.755 243.225 311.439 229.704 325.776 229.704C340.112 229.704 351.796 243.225 351.796 259.857C351.796 261.643 351.643 263.378 351.388 265.061C351.031 267.612 352.919 269.908 355.521 269.908H386.745C389.296 269.908 391.235 267.612 390.878 265.061C390.623 263.378 390.47 261.643 390.47 259.857C390.47 243.225 402.153 229.704 416.49 229.704C430.827 229.704 442.51 243.225 442.51 259.857C442.51 261.643 442.357 263.378 442.102 265.061C441.745 267.612 443.633 269.908 446.235 269.908H451.388C453.276 269.908 454.806 268.378 454.806 266.49V224.5C454.806 220.367 451.439 217 447.306 217H309.041C292.714 216.949 279.551 230.163 279.551 246.439Z" fill="#F05B71"/>
<path d="M287.918 265.214H234.857C232.357 265.214 230.265 267.255 230.265 269.806C230.265 272.306 232.306 274.398 234.857 274.398H287.918C290.418 274.398 292.51 272.357 292.51 269.806C292.51 267.306 290.469 265.214 287.918 265.214Z" fill="#E4E5E6"/>
<path d="M294.245 265.214H281.643C279.143 265.214 277.051 267.255 277.051 269.806C277.051 272.306 279.092 274.398 281.643 274.398H294.245C296.745 274.398 298.837 272.357 298.837 269.806C298.786 267.306 296.745 265.214 294.245 265.214Z" fill="#9AA2AE"/>
<path d="M304.806 173.735H357.765C367.306 173.735 375.52 180.469 377.408 189.806L382.867 216.949H267.969V210.571C267.969 190.265 284.5 173.735 304.806 173.735Z" fill="#F69EA1"/>
<path d="M378.021 216.898H271.898V210.572C271.898 209.398 271.949 208.276 272.051 207.153C273.735 190.623 287.766 177.663 304.755 177.663H357.715C365.317 177.663 371.95 183.072 373.48 190.572L378.021 216.898Z" fill="#8094C4"/>
<path d="M350.724 177.714L272.102 207.204C273.786 190.673 287.816 177.714 304.806 177.714H350.724Z" fill="#B9C2DF"/>
<path d="M349.653 173.735H402.612C412.153 173.735 420.367 180.469 422.255 189.806L427.714 216.949H312.817V210.571C312.817 190.265 329.296 173.735 349.653 173.735Z" fill="#F05B71"/>
<path d="M423.633 216.898H317.459V210.571C317.459 192.816 331.898 178.326 349.704 178.326H402.663C407.714 178.326 412.357 180.826 415.163 184.755C416.439 186.49 417.306 188.479 417.765 190.673L423.633 216.898Z" fill="#6077A6"/>
<path d="M323.377 209.143H322.51C320.775 209.143 319.347 210.571 319.347 212.306V218.326C319.347 220.061 320.775 221.49 322.51 221.49H323.377H328.428V209.092H323.377V209.143Z" fill="#E5939A"/>
<path d="M328.99 209.143H328.122C326.388 209.143 324.959 210.572 324.959 212.306V218.327C324.959 220.061 326.388 221.49 328.122 221.49H328.99C330.367 221.49 331.541 220.367 331.541 218.939V211.592C331.541 210.265 330.418 209.143 328.99 209.143Z" fill="#D14C66"/>
<path d="M382.867 176.694H387.816V217H382.867V176.694Z" fill="#F05B71"/>
<path d="M395.061 178.378L389.04 217.051H394.959L401.031 178.378H395.061Z" fill="#8E9CC1"/>
<path d="M403.428 184.449C402.969 184.449 402.612 184.755 402.561 185.214L401.03 195.163C400.928 195.724 401.388 196.183 401.898 196.183C402.357 196.183 402.714 195.877 402.765 195.418L404.296 185.469C404.398 184.908 403.989 184.449 403.428 184.449Z" fill="#8E9CC1"/>
<path d="M456.592 196.898C454.347 196.949 452.612 198.837 452.612 201.082V201.847C452.612 203.429 451.439 204.806 449.806 205.01L439.092 206.337C437.459 206.541 436.286 207.918 436.286 209.551C436.286 211.337 437.714 212.765 439.5 212.765H452.612H457.459C459.245 212.765 460.674 211.337 460.674 209.551V202.663V200.98C460.674 198.684 458.837 196.847 456.592 196.898Z" fill="#F05B71"/>
<path d="M451.439 198.939H436.898C436.49 198.939 436.133 198.582 436.133 198.174C436.133 197.765 436.49 197.408 436.898 197.408H451.439C451.848 197.408 452.205 197.765 452.205 198.174C452.205 198.582 451.848 198.939 451.439 198.939Z" fill="#FAC6C9"/>
<path d="M432.867 198.939H429.755C429.347 198.939 428.99 198.582 428.99 198.174C428.99 197.765 429.347 197.408 429.755 197.408H432.867C433.275 197.408 433.632 197.765 433.632 198.174C433.581 198.582 433.275 198.939 432.867 198.939Z" fill="#FAC6C9"/>
<path d="M382.868 178.378V195.367H321.286C322.663 192.867 324.296 190.52 326.286 188.48C332.153 182.255 340.47 178.378 349.704 178.378H382.868Z" fill="#545456"/>
<path d="M382.867 178.378V182.051C373.173 183.786 351.235 186.949 335.724 195.367H321.235C322.612 192.867 324.245 190.52 326.235 188.48C332.102 182.255 340.418 178.378 349.653 178.378H382.867Z" fill="#444445"/>
<path d="M360.929 192.153C360.163 192.153 359.347 191.796 358.888 191.081C358.123 189.959 358.378 188.428 359.5 187.663L372.255 178.887C373.377 178.122 374.908 178.377 375.673 179.5C376.439 180.622 376.183 182.153 375.061 182.918L362.306 191.693C361.898 192.051 361.439 192.153 360.929 192.153Z" fill="#D3B785"/>
<path d="M361.745 187.153C361.745 188.173 361.286 189.142 360.419 189.806C359.857 190.214 359.347 190.622 358.837 191.03C357.561 192.051 356.439 193.02 355.419 193.938C354.908 194.397 354.449 194.857 353.99 195.316H345.317C347.715 192.102 351.133 188.53 356.439 184.5C356.796 184.245 357.204 184.041 357.612 183.939C358.123 183.785 358.684 183.785 359.194 183.939C359.908 184.092 360.572 184.5 361.082 185.163C361.337 185.469 361.49 185.826 361.592 186.183C361.694 186.541 361.745 186.847 361.745 187.153Z" fill="#F0D49A"/>
<path d="M353.53 191.591C353.53 192.765 353.887 193.887 354.5 194.856C354.806 194.55 355.112 194.295 355.418 193.989C356.438 193.071 357.561 192.05 358.837 191.081C359.347 190.673 359.857 190.265 360.418 189.857C361.286 189.193 361.745 188.224 361.745 187.204C361.745 186.898 361.694 186.591 361.592 186.285C361.541 186.081 361.439 185.877 361.337 185.673C360.878 185.571 360.469 185.52 360.01 185.52C356.438 185.469 353.53 188.224 353.53 191.591Z" fill="#D3B785"/>
<path d="M366.797 190.01C366.797 190.814 366.63 191.61 366.307 192.353C365.984 193.095 365.511 193.77 364.914 194.339C364.317 194.907 363.608 195.358 362.828 195.666C362.048 195.974 361.212 196.132 360.368 196.132C359.524 196.132 358.688 195.974 357.908 195.666C357.128 195.358 356.419 194.907 355.822 194.339C355.225 193.77 354.751 193.095 354.428 192.353C354.105 191.61 353.939 190.814 353.939 190.01C353.939 189.206 354.105 188.41 354.428 187.667C354.751 186.924 355.225 186.249 355.822 185.68C356.419 185.112 357.128 184.661 357.908 184.353C358.688 184.046 359.524 183.887 360.368 183.887C361.212 183.887 362.048 184.046 362.828 184.353C363.608 184.661 364.317 185.112 364.914 185.68C365.511 186.249 365.984 186.924 366.307 187.667C366.63 188.41 366.797 189.206 366.797 190.01Z" fill="#F0D49A"/>
<path d="M364.399 175.724L360.011 180.571C359.45 181.183 359.501 182.153 360.113 182.765L372.613 194.143C373.225 194.704 374.195 194.653 374.807 194.041L379.194 189.194C379.756 188.581 379.705 187.612 379.092 187L366.593 175.622C365.929 175.061 364.96 175.112 364.399 175.724Z" fill="#72CAC3"/>
<path d="M371.4 182.872C371.667 183.115 371.884 183.409 372.038 183.737C372.192 184.064 372.28 184.418 372.297 184.78C372.314 185.141 372.26 185.502 372.137 185.843C372.015 186.183 371.826 186.496 371.583 186.764C371.091 187.304 370.404 187.627 369.675 187.661C368.945 187.695 368.231 187.438 367.691 186.947C367.15 186.455 366.828 185.768 366.793 185.038C366.759 184.309 367.016 183.595 367.508 183.055C367.751 182.787 368.045 182.57 368.373 182.416C368.7 182.262 369.055 182.174 369.416 182.157C369.777 182.14 370.139 182.195 370.479 182.317C370.819 182.44 371.132 182.628 371.4 182.872Z" fill="#BFE4DF"/>
<path d="M356.592 190.214C355.826 190.214 355.01 189.857 354.551 189.143C353.785 188.02 354.04 186.49 355.163 185.724L367.919 176.949C369.041 176.184 370.572 176.439 371.337 177.561C372.103 178.684 371.847 180.214 370.725 180.979L357.969 189.755C357.561 190.061 357.102 190.214 356.592 190.214Z" fill="#F0D49A"/>
<path d="M260.367 257.612H251.337C249.806 257.612 248.581 258.837 248.581 260.367V265.214H263.122V260.367C263.122 258.837 261.898 257.612 260.367 257.612Z" fill="#DD878D"/>
<path d="M253.326 257.612H251.337C249.806 257.612 248.581 258.837 248.581 260.367V265.214H250.571V260.367C250.52 258.837 251.796 257.612 253.326 257.612Z" fill="#C54D69"/>
<path d="M263.684 248.99H247.969C247.51 248.99 247.153 249.347 247.153 249.806C247.153 250.265 247.51 250.622 247.969 250.622H263.684C264.143 250.622 264.5 250.265 264.5 249.806C264.5 249.347 264.143 248.99 263.684 248.99Z" fill="#DD878D"/>
<path d="M263.684 253.276H247.969C247.51 253.276 247.153 253.633 247.153 254.092C247.153 254.551 247.51 254.908 247.969 254.908H263.684C264.143 254.908 264.5 254.551 264.5 254.092C264.5 253.633 264.143 253.276 263.684 253.276Z" fill="#DD878D"/>
<path d="M276.949 251.847V258.021C276.949 259.5 275.724 260.725 274.245 260.725H271.235C270.928 260.725 270.622 260.674 270.367 260.572C269.296 260.214 268.581 259.194 268.581 258.021V251.847C268.581 250.367 269.806 249.143 271.286 249.143H274.296C275.775 249.194 276.949 250.367 276.949 251.847Z" fill="#FCBD7A"/>
<path d="M272.357 251.847C272.357 252.226 272.207 252.589 271.939 252.857C271.671 253.125 271.307 253.276 270.929 253.276C270.55 253.276 270.186 253.125 269.918 252.857C269.65 252.589 269.5 252.226 269.5 251.847C269.5 251.468 269.65 251.105 269.918 250.837C270.186 250.569 270.55 250.419 270.929 250.419C271.307 250.419 271.671 250.569 271.939 250.837C272.207 251.105 272.357 251.468 272.357 251.847Z" fill="#FFE5C7"/>
<path d="M276.949 253.123V258.021C276.949 259.5 275.724 260.725 274.245 260.725H271.235C270.928 260.725 270.622 260.674 270.367 260.572C270.112 259.959 269.959 259.245 269.959 258.531C269.959 255.47 272.459 252.969 275.52 252.969C276.03 252.918 276.49 252.969 276.949 253.123Z" fill="#FFE5C7"/>
<path d="M243.122 251.847V258.021C243.122 259.5 241.898 260.725 240.418 260.725H237.408C237.102 260.725 236.796 260.674 236.541 260.572C235.469 260.214 234.755 259.194 234.755 258.021V251.847C234.755 250.367 235.98 249.143 237.459 249.143H240.469C241.898 249.194 243.122 250.367 243.122 251.847Z" fill="#FCBD7A"/>
<path d="M238.48 251.847C238.48 252.226 238.329 252.589 238.061 252.857C237.793 253.125 237.43 253.276 237.051 253.276C236.672 253.276 236.309 253.125 236.041 252.857C235.773 252.589 235.622 252.226 235.622 251.847C235.622 251.468 235.773 251.105 236.041 250.837C236.309 250.569 236.672 250.419 237.051 250.419C237.43 250.419 237.793 250.569 238.061 250.837C238.329 251.105 238.48 251.468 238.48 251.847Z" fill="#FFE5C7"/>
<path d="M243.122 253.123V258.021C243.122 259.5 241.898 260.725 240.418 260.725H237.408C237.102 260.725 236.796 260.674 236.541 260.572C236.286 259.959 236.133 259.245 236.133 258.531C236.133 255.47 238.633 252.969 241.694 252.969C242.204 252.918 242.663 252.969 243.122 253.123Z" fill="#FFE5C7"/>
<path d="M266.388 241.081H277.306C277.918 241.081 278.429 241.592 278.429 242.204C278.429 242.816 277.918 243.326 277.306 243.326H266.388C265.776 243.326 265.266 242.816 265.266 242.204C265.214 241.592 265.776 241.081 266.388 241.081Z" fill="#FCD7D9"/>
<path d="M260.163 241.081H261.949C262.561 241.081 263.072 241.592 263.072 242.204C263.072 242.816 262.561 243.326 261.949 243.326H260.163C259.551 243.326 259.041 242.816 259.041 242.204C259.041 241.592 259.551 241.081 260.163 241.081Z" fill="#FCD7D9"/>
<path d="M408.225 222.306H388.735C387.868 222.306 387.204 221.592 387.204 220.775C387.204 219.908 387.919 219.245 388.735 219.245H408.276C409.143 219.245 409.807 219.959 409.807 220.775C409.807 221.592 409.092 222.306 408.225 222.306Z" fill="#F69EA1"/>
<path d="M382.102 222.306H376.847C375.98 222.306 375.317 221.592 375.317 220.775C375.317 219.908 376.031 219.245 376.847 219.245H382.102C382.969 219.245 383.633 219.959 383.633 220.775C383.684 221.592 382.969 222.306 382.102 222.306Z" fill="#F69EA1"/>
<path d="M366.898 221.388H359.552V225.367V285.265H366.898H375.674V230.163C375.725 225.316 371.796 221.388 366.898 221.388Z" fill="#D0D8D8"/>
<path d="M359.551 221.388C354.704 221.388 350.776 225.316 350.776 230.163V285.214H368.378V230.163C368.378 225.316 364.449 221.388 359.551 221.388Z" fill="#FFFEF9"/>
<path d="M353.224 235.01H365.928V237.153H353.224V235.01Z" fill="#D1D3D4"/>
<path d="M353.224 239.755H365.928V241.898H353.224V239.755Z" fill="#D1D3D4"/>
<path d="M362.919 250.98C362.919 251.422 362.832 251.86 362.662 252.268C362.493 252.677 362.245 253.048 361.932 253.361C361.62 253.673 361.248 253.921 360.84 254.091C360.431 254.26 359.993 254.347 359.551 254.347C359.109 254.347 358.671 254.26 358.263 254.091C357.854 253.921 357.483 253.673 357.17 253.361C356.857 253.048 356.609 252.677 356.44 252.268C356.271 251.86 356.184 251.422 356.184 250.98C356.184 250.086 356.539 249.23 357.17 248.598C357.802 247.967 358.658 247.612 359.551 247.612C360.444 247.612 361.301 247.967 361.932 248.598C362.564 249.23 362.919 250.086 362.919 250.98Z" fill="#AFB5BF"/>
<path d="M361.796 250.98C361.796 251.575 361.56 252.146 361.139 252.567C360.718 252.988 360.147 253.224 359.551 253.224C358.956 253.224 358.385 252.988 357.964 252.567C357.543 252.146 357.306 251.575 357.306 250.98C357.306 250.384 357.543 249.813 357.964 249.392C358.385 248.971 358.956 248.735 359.551 248.735C360.147 248.735 360.718 248.971 361.139 249.392C361.56 249.813 361.796 250.384 361.796 250.98Z" fill="#909AA7"/>
<path d="M359.551 249.347C359.295 249.347 359.142 249.551 359.142 249.755V252.153C359.142 252.408 359.347 252.561 359.551 252.561C359.806 252.561 359.959 252.357 359.959 252.153V249.755C359.959 249.5 359.806 249.347 359.551 249.347Z" fill="#4C5966"/>
<path d="M230.367 231.847C227.357 231.847 224.908 234.296 224.908 237.306C224.908 240.316 227.357 242.765 230.367 242.765H350.775V231.847H230.367Z" fill="#FFDA8B"/>
<path d="M342.255 231.847L337.816 242.765H341.03L345.469 231.847H342.255Z" fill="#4C5966"/>
<path d="M330.214 231.847L325.776 242.765H328.99L333.429 231.847H330.214Z" fill="#4C5966"/>
<path d="M318.173 231.847L313.735 242.765H316.949L321.439 231.847H318.173Z" fill="#4C5966"/>
<path d="M306.183 231.847L301.694 242.765H304.908L309.398 231.847H306.183Z" fill="#4C5966"/>
<path d="M294.143 231.847L289.653 242.765H292.867L297.357 231.847H294.143Z" fill="#4C5966"/>
<path d="M282.102 231.847L277.612 242.765H280.877L285.316 231.847H282.102Z" fill="#4C5966"/>
<path d="M270.061 231.847L265.622 242.765H268.837L273.275 231.847H270.061Z" fill="#4C5966"/>
<path d="M258.02 231.847L253.581 242.765H256.796L261.234 231.847H258.02Z" fill="#4C5966"/>
<path d="M245.979 231.847L241.54 242.765H244.755L249.194 231.847H245.979Z" fill="#4C5966"/>
<path d="M235.673 231.847L231.235 242.765H234.449L238.888 231.847H235.673Z" fill="#4C5966"/>
<path d="M512.204 118.786H566.184V285.265H512.204V118.786Z" fill="#D0D8D8"/>
<path d="M517.357 139.755H561.03V201.796H517.357V139.755Z" fill="#6D7E8F"/>
<path d="M544.704 139.755L527.663 201.796H521.847L538.837 139.755H544.704Z" fill="#8892A1"/>
<path d="M549.755 156.388L548.02 162.715C547.663 163.939 546.592 164.806 545.316 164.806C543.479 164.806 542.102 163.021 542.612 161.235L544.347 154.908C544.704 153.684 545.775 152.817 547.051 152.817C548.939 152.817 550.265 154.602 549.755 156.388Z" fill="#8892A1"/>
<path d="M413.174 118.786H512.255V285.265H413.174V118.786Z" fill="#FFFEF9"/>
<path d="M413.174 118.786H512.255V124.653H413.174V118.786Z" fill="#D0D8D8"/>
<path d="M512.204 118.786H566.184V124.653H512.204V118.786Z" fill="#B9BABA"/>
<path d="M422.101 139.755H503.275V201.796H422.101V139.755Z" fill="#8892A1"/>
<path d="M461.081 140.112L436.031 201.796H449.143L474.142 140.112H461.081Z" fill="#A4ABB6"/>
<path d="M474.193 150.061L463.326 176.847C462.152 179.806 464.295 182.969 467.459 182.969C469.295 182.969 470.928 181.847 471.591 180.163L482.459 153.378C483.632 150.418 481.489 147.255 478.326 147.255C476.54 147.255 474.908 148.378 474.193 150.061Z" fill="#A4ABB6"/>
<path d="M575.469 104.653H468.173C464.295 104.653 461.132 107.816 461.132 111.694C461.132 115.572 464.295 118.735 468.173 118.735H575.469C579.347 118.735 582.51 115.572 582.51 111.694C582.561 107.816 579.398 104.653 575.469 104.653Z" fill="#DBA510"/>
<path d="M516.337 104.653H409.04C405.163 104.653 401.999 107.816 401.999 111.694C401.999 115.572 405.163 118.735 409.04 118.735H516.337C520.214 118.735 523.378 115.572 523.378 111.694C523.378 107.816 520.214 104.653 516.337 104.653Z" fill="#FFDA8B"/>
<path d="M413.174 209.092H512.255V215.98H413.174V209.092Z" fill="#97DAF8"/>
<path d="M413.174 221.49H512.255V228.378H413.174V221.49Z" fill="#97DAF8"/>
<path d="M512.204 209.092H566.184V215.98H512.204V209.092Z" fill="#00B0DF"/>
<path d="M512.204 221.49H566.184V228.378H512.204V221.49Z" fill="#00B0DF"/>
<path d="M378.533 118.507C384.188 118.584 389.582 120.903 393.527 124.956C397.473 129.009 399.646 134.463 399.57 140.119C399.494 145.774 397.175 151.168 393.122 155.113C389.069 159.058 383.614 161.232 377.959 161.156C372.303 161.08 366.91 158.76 362.964 154.707C359.019 150.654 356.845 145.2 356.921 139.545C356.997 133.889 359.317 128.496 363.37 124.55C367.423 120.605 372.877 118.431 378.533 118.507Z" fill="#F1FAFE"/>
<path d="M377.102 149.755C375.826 149.602 374.601 149.245 373.428 148.734C372.254 148.224 371.183 147.561 370.214 146.745L372.152 144.092C372.969 144.806 373.785 145.367 374.653 145.775C375.469 146.183 376.336 146.49 377.306 146.694L377.408 140.928C375.265 140.367 373.683 139.602 372.663 138.683C371.642 137.765 371.183 136.49 371.183 134.806V134.755C371.183 133.99 371.336 133.275 371.642 132.612C371.948 131.949 372.356 131.387 372.918 130.928C373.479 130.469 374.142 130.061 374.908 129.755C375.673 129.449 376.489 129.296 377.408 129.245V127.561L379.959 127.612V129.398C381.03 129.551 382 129.806 382.918 130.214C383.785 130.622 384.653 131.081 385.469 131.694L383.785 134.449C382.51 133.479 381.183 132.816 379.806 132.51L379.755 138.071C382 138.683 383.581 139.449 384.602 140.418C385.622 141.387 386.081 142.663 386.081 144.194V144.245C386.081 145.061 385.928 145.775 385.571 146.438C385.265 147.102 384.806 147.663 384.296 148.122C383.734 148.581 383.071 148.99 382.306 149.296C381.541 149.602 380.673 149.755 379.755 149.857L379.704 152.765L377.153 152.714L377.102 149.755ZM377.459 132.204C376.54 132.255 375.826 132.51 375.316 132.969C374.857 133.428 374.601 133.939 374.601 134.602V134.653C374.601 135.265 374.755 135.775 375.163 136.183C375.52 136.592 376.285 137 377.408 137.357L377.459 132.204ZM379.551 146.847C380.469 146.796 381.234 146.541 381.745 146.081C382.255 145.622 382.51 145.061 382.51 144.398V144.347C382.51 143.683 382.306 143.173 381.949 142.714C381.541 142.255 380.775 141.898 379.653 141.541L379.551 146.847Z" fill="#F05B71"/>
<path d="M393.734 147.51C393.734 147.867 394.551 160.01 394.551 160.01L398.53 155.367L409.041 176.031L398.53 162.51L392 169.347L386.897 153.786L393.734 147.51Z" fill="#F1FAFE"/>
<path d="M498.683 48.1227H495.469C494.857 33.888 483.122 22.5615 468.734 22.5615C457.255 22.5615 447.459 29.8064 443.632 39.9595C442.102 39.1431 440.367 38.6329 438.479 38.6329C432.969 38.6329 428.428 42.7656 427.765 48.1227H422.663C420.265 48.1227 418.326 50.0615 418.326 52.4594C418.326 54.8574 420.265 56.7962 422.663 56.7962H498.683C501.081 56.7962 503.02 54.8574 503.02 52.4594C503.02 50.0615 501.081 48.1227 498.683 48.1227Z" fill="#78B4D8"/>
<path d="M172.357 25.5612H169.143C168.531 11.3265 156.796 0 142.408 0C130.929 0 121.133 7.2449 117.306 17.398C115.775 16.5816 114.041 16.0714 112.153 16.0714C106.643 16.0714 102.102 20.2041 101.439 25.5612H96.3367C93.9388 25.5612 92 27.5 92 29.898C92 32.2959 93.9388 34.2347 96.3367 34.2347H172.357C174.755 34.2347 176.694 32.2959 176.694 29.898C176.694 27.5 174.755 25.5612 172.357 25.5612Z" fill="#78B4D8"/>
</svg>
