<svg width="463" height="300" viewBox="0 0 463 300" fill="none" xmlns="http://www.w3.org/2000/svg">
<g clip-path="url(#clip0_4_89)">
<path d="M14.6633 230.249C16.9562 206.845 30.8144 183.483 52.8644 175.312C44.7164 199.551 45.4051 225.892 54.8086 249.673C58.4683 258.831 63.4924 268.636 60.5197 278.04C58.6702 283.891 53.8912 288.456 48.4924 291.373C43.0932 294.29 37.0554 295.77 31.0929 297.222L29.9383 298.229C19.8589 276.983 12.3704 253.653 14.6633 230.249Z" fill="#F0F0F0"/>
<path d="M53.0967 175.747C40.6469 190.442 32.811 209.209 31.441 228.448C31.1448 232.608 31.2063 236.853 32.2199 240.919C33.2383 244.875 35.2974 248.485 38.1833 251.376C40.8199 254.125 43.8352 256.632 45.7575 259.975C47.7838 263.498 47.9639 267.556 46.7395 271.386C45.2414 276.073 42.1487 279.941 38.9929 283.619C35.4889 287.703 31.7847 291.889 30.3889 297.219C30.2198 297.864 29.2278 297.564 29.3966 296.919C31.825 287.647 40.6219 282.187 44.666 273.788C46.5531 269.868 47.2704 265.356 45.3004 261.322C43.5776 257.795 40.4704 255.207 37.7767 252.446C34.9483 249.547 32.7541 246.343 31.5649 242.439C30.3485 238.445 30.1208 234.193 30.3094 230.044C30.8071 220.639 32.7805 211.371 36.1573 202.579C39.9555 192.523 45.4459 183.192 52.3909 174.988C52.8209 174.48 53.5239 175.243 53.0967 175.747L53.0967 175.747Z" fill="white"/>
<path d="M31.5564 222.171C28.3346 221.477 25.4643 219.661 23.4582 217.046C21.452 214.431 20.4406 211.189 20.6046 207.897C20.6125 207.763 20.6722 207.637 20.771 207.546C20.8699 207.455 21.0003 207.406 21.1347 207.409C21.2691 207.412 21.3969 207.468 21.4914 207.563C21.5858 207.659 21.6394 207.788 21.6409 207.922C21.4826 210.987 22.425 214.007 24.2981 216.438C26.1712 218.869 28.8516 220.551 31.8556 221.179C32.5082 221.316 32.2053 222.308 31.5564 222.171Z" fill="white"/>
<path d="M36.6628 250.158C42.3551 246.555 46.4802 240.938 48.2154 234.429C48.3868 233.784 49.3789 234.084 49.2077 234.728C47.3893 241.499 43.0847 247.335 37.1529 251.071C36.5872 251.427 36.1002 250.512 36.6628 250.158Z" fill="white"/>
<path d="M40.9423 193.48C42.133 194.008 43.4362 194.232 44.7349 194.132C46.0336 194.032 47.2871 193.611 48.383 192.907C48.9438 192.545 49.4303 193.46 48.8731 193.821C47.6587 194.593 46.2737 195.056 44.8391 195.17C43.4045 195.283 41.9638 195.044 40.6431 194.472C40.5141 194.429 40.4065 194.338 40.3421 194.218C40.2777 194.098 40.2614 193.958 40.2965 193.826C40.3368 193.695 40.4272 193.585 40.5482 193.52C40.6691 193.455 40.8107 193.441 40.9423 193.48H40.9423Z" fill="white"/>
<path d="M121.766 215.21C121.422 215.447 121.078 215.683 120.734 215.928C116.129 219.132 111.792 222.704 107.765 226.609C107.449 226.906 107.133 227.212 106.826 227.518C97.2254 237.03 89.4742 248.243 83.9666 260.586C81.7795 265.499 79.9694 270.572 78.552 275.76C76.5948 282.925 75.0428 290.849 70.9534 296.775C70.5337 297.398 70.0758 297.994 69.5823 298.56L31.2561 299.56C31.1678 299.518 31.0794 299.485 30.9907 299.444L29.4623 299.554C29.5167 299.281 29.579 299 29.6334 298.727C29.6643 298.569 29.7038 298.41 29.7347 298.252C29.758 298.146 29.7817 298.04 29.7967 297.944C29.8043 297.909 29.8124 297.873 29.8203 297.847C29.8352 297.75 29.8594 297.662 29.8747 297.574C30.2186 295.999 30.5741 294.424 30.9413 292.848C30.9411 292.839 30.9411 292.839 30.9494 292.83C33.7782 280.83 37.6336 268.96 43.168 258.053C43.3346 257.725 43.5006 257.388 43.6847 257.059C46.2067 252.157 49.1251 247.469 52.4109 243.042C54.2178 240.623 56.1461 238.298 58.1882 236.075C63.4757 230.34 69.6323 225.473 76.4324 221.651C89.9894 214.035 105.831 210.839 120.637 214.89C121.016 214.994 121.387 215.098 121.766 215.21Z" fill="#F0F0F0"/>
<path d="M121.692 215.699C102.904 219.936 85.3488 230.203 72.6714 244.74C69.9305 247.883 67.4237 251.309 65.785 255.166C64.2166 258.938 63.6868 263.06 64.2506 267.106C64.7005 270.888 65.5987 274.705 65.1213 278.532C64.618 282.564 62.3185 285.913 59.0348 288.234C55.0171 291.074 50.2186 292.301 45.4844 293.338C40.228 294.489 34.7499 295.601 30.4269 299.016C29.9031 299.429 29.2917 298.593 29.8147 298.179C37.3361 292.238 47.6473 293.175 55.9334 288.903C59.7999 286.91 63.0891 283.739 63.9449 279.332C64.6933 275.478 63.7704 271.541 63.2817 267.715C62.7687 263.698 62.9458 259.819 64.3471 255.985C65.7806 252.064 68.1588 248.532 70.8072 245.333C76.867 238.123 84.0228 231.911 92.0122 226.924C101.099 221.182 111.101 217.037 121.586 214.668C122.235 214.521 122.337 215.554 121.692 215.699H121.692Z" fill="white"/>
<path d="M76.5429 239.797C74.3882 237.304 73.19 234.125 73.1624 230.83C73.1349 227.534 74.2796 224.336 76.3923 221.807C76.8215 221.296 77.6347 221.939 77.2049 222.45C75.2333 224.802 74.1672 227.781 74.1992 230.85C74.2311 233.919 75.359 236.875 77.3792 239.185C77.8176 239.688 76.9788 240.297 76.5429 239.797Z" fill="white"/>
<path d="M63.7699 265.218C70.4844 265.768 77.1595 263.767 82.4642 259.614C82.9895 259.202 83.601 260.039 83.0764 260.451C77.5481 264.762 70.5974 266.83 63.6114 266.242C62.9455 266.186 63.1077 265.162 63.7699 265.218H63.7699Z" fill="white"/>
<path d="M101.311 222.54C101.944 223.679 102.849 224.642 103.946 225.344C105.043 226.046 106.298 226.465 107.597 226.563C108.263 226.611 108.1 227.635 107.438 227.587C106.004 227.472 104.619 227.008 103.405 226.235C102.191 225.462 101.185 224.404 100.475 223.152C100.398 223.04 100.367 222.902 100.388 222.768C100.408 222.633 100.48 222.512 100.587 222.428C100.698 222.347 100.836 222.314 100.972 222.335C101.108 222.356 101.229 222.43 101.311 222.54Z" fill="white"/>
<path d="M346.707 20.5341C346.135 18.8445 338.959 13.1008 343.356 12.1354L346.962 16.9436L363.541 0.365021L365.208 2.03245L346.707 20.5341Z" fill="#2A98C7"/>
<path d="M346.707 76.9084C346.135 75.2188 338.959 69.4751 343.356 68.5097L346.962 73.318L363.541 56.7393L365.208 58.4067L346.707 76.9084Z" fill="#2A98C7"/>
<path d="M346.707 134.088C346.135 132.398 338.959 126.655 343.356 125.689L346.962 130.498L363.541 113.919L365.208 115.586L346.707 134.088Z" fill="#2A98C7"/>
<path d="M331.44 87.8598C334.266 87.8598 336.556 85.5694 336.556 82.7439C336.556 79.9185 334.266 77.628 331.44 77.628C328.615 77.628 326.325 79.9185 326.325 82.7439C326.325 85.5694 328.615 87.8598 331.44 87.8598Z" fill="#3F3D56"/>
<path d="M331.44 32.0964C334.266 32.0964 336.556 29.8059 336.556 26.9804C336.556 24.155 334.266 21.8645 331.44 21.8645C328.615 21.8645 326.325 24.155 326.325 26.9804C326.325 29.8059 328.615 32.0964 331.44 32.0964Z" fill="#3F3D56"/>
<path d="M462.663 15.2138H380.297V16.237H462.663V15.2138Z" fill="#3F3D56"/>
<path d="M333.998 147.304C336.824 147.304 339.114 145.013 339.114 142.188C339.114 139.362 336.824 137.072 333.998 137.072C331.173 137.072 328.882 139.362 328.882 142.188C328.882 145.013 331.173 147.304 333.998 147.304Z" fill="#3F3D56"/>
<path d="M462.663 71.588H380.297V72.6112H462.663V71.588Z" fill="#3F3D56"/>
<path d="M462.663 128.768H380.297V129.791H462.663V128.768Z" fill="#3F3D56"/>
<path d="M359.628 141.711H334.049V115.62H351.443V116.643H335.072V140.688H358.605V128.921H359.628V141.711Z" fill="#3F3D56"/>
<path d="M359.628 84.4126H334.049V58.3214H351.443V59.3446H335.072V83.3894H358.605V71.6228H359.628V84.4126Z" fill="#3F3D56"/>
<path d="M359.628 26.0912H334.049V0H351.443V1.02318H335.072V25.068H358.605V13.3014H359.628V26.0912Z" fill="#3F3D56"/>
<path d="M192.617 92.9928C192.617 92.9928 185.78 121.857 194.136 121.857C202.491 121.857 222.241 89.1948 222.241 89.1948L215.404 80.8393L203.134 97.8752L202.491 89.1948L192.617 92.9928Z" fill="#A0616A"/>
<path d="M220.419 90.4496C224.092 90.4496 227.07 87.472 227.07 83.7989C227.07 80.1259 224.092 77.1483 220.419 77.1483C216.746 77.1483 213.768 80.1259 213.768 83.7989C213.768 87.472 216.746 90.4496 220.419 90.4496Z" fill="#A0616A"/>
<path d="M186.82 289.585L195.672 289.585L199.884 255.438L186.818 255.439L186.82 289.585Z" fill="#A0616A"/>
<path d="M186.508 298.82L213.732 298.819V298.475C213.731 295.665 212.615 292.97 210.628 290.983C208.641 288.996 205.946 287.879 203.135 287.879H203.135L198.162 284.107L188.884 287.88L186.508 287.88L186.508 298.82Z" fill="#2F2E41"/>
<path d="M91.5943 278.541L99.5153 282.493L118.532 253.821L106.841 247.987L91.5943 278.541Z" fill="#A0616A"/>
<path d="M87.1911 286.664L111.55 298.82L111.703 298.512C112.958 295.998 113.163 293.088 112.272 290.422C111.381 287.757 109.469 285.555 106.954 284.3L106.954 284.299L104.189 278.703L94.2027 277.936L92.0763 276.875L87.1911 286.664Z" fill="#2F2E41"/>
<path d="M291.53 298.854H0V300H291.53V298.854Z" fill="#CCCCCC"/>
<path d="M129.585 145.357C129.585 145.357 126.047 187.895 125.288 197.011C124.767 202.724 123.49 208.344 121.49 213.722C121.49 213.722 119.971 216.76 119.971 219.798L102.753 251.089C102.753 251.089 97.4918 254.957 98.2513 257.995C99.0109 261.033 95.0792 262.856 95.0792 262.856L113.211 266.351C113.211 266.351 112.451 264.072 114.73 263.312C117.009 262.553 118.823 255.964 118.823 255.964L144.278 214.481L162.508 176.502C162.508 176.502 173.142 210.683 175.421 214.481C175.421 214.481 183.777 257.019 185.296 260.817C186.815 264.615 187.574 264.615 186.815 266.134C186.055 267.653 186.055 269.172 186.815 269.932C187.574 270.691 202.007 269.932 202.007 269.932L198.209 216L191.372 151.435L156.431 140.801L129.585 145.357Z" fill="#2F2E41"/>
<path d="M163.795 43.8084C172.604 43.8084 179.746 36.6667 179.746 27.8569C179.746 19.0472 172.604 11.9055 163.795 11.9055C154.985 11.9055 147.843 19.0472 147.843 27.8569C147.843 36.6667 154.985 43.8084 163.795 43.8084Z" fill="#A0616A"/>
<path d="M192.892 67.1198L173.902 55.6149C173.902 55.6149 173.376 48.4706 167.966 48.1344C165.249 47.9656 161.173 47.7076 155.056 47.3132C153.763 47.2298 152.891 54.3027 151.409 54.2067L131.364 59.5239L134.403 111.176C134.403 111.176 129.845 131.685 131.364 135.483C132.884 139.281 127.567 140.801 129.086 141.56C130.605 142.32 129.086 147.637 129.086 147.637C129.086 147.637 158.71 162.829 191.372 151.435L188.334 141.56C188.748 140.269 188.825 138.894 188.559 137.565C188.293 136.236 187.693 134.997 186.815 133.964C186.815 133.964 189.853 129.407 186.055 125.609C186.055 125.609 187.574 118.772 183.776 115.734L183.017 105.1L185.296 99.7824L192.892 67.1198Z" fill="#E6E6E6"/>
<path d="M149.953 36.9696L149.507 35.9339C149.45 35.8 143.808 22.4642 148.809 14.2383C151.123 10.4301 155.332 8.28003 161.318 7.84837C170.684 7.17116 177.094 9.39286 180.375 14.4471C180.925 15.3037 181.235 16.2927 181.27 17.3101C181.306 18.3276 181.067 19.3359 180.578 20.229C180.09 21.1221 179.369 21.8671 178.493 22.3856C177.617 22.904 176.617 23.1769 175.599 23.1754H175.473L173.753 20.9409L173.652 21.1582C173.029 22.5061 171.599 23.2441 169.923 23.0824C169.638 23.062 169.385 23.308 169.182 23.8346C169.114 24.0649 168.985 24.2727 168.809 24.436C168.633 24.5992 168.416 24.7121 168.181 24.7626C166.943 25.0037 165.177 23.4439 164.387 22.6665C164.357 22.8455 164.288 23.0157 164.186 23.1659C164.084 23.316 163.951 23.4425 163.796 23.5368C162.964 24.0172 161.668 23.3897 161.296 23.1899C158.333 23.8194 156.415 23.651 155.594 22.69C155.037 26.6311 153.841 33.725 152.407 34.1181C152.258 34.1526 152.101 34.138 151.96 34.0764C151.819 34.0148 151.702 33.9095 151.625 33.7762C151.28 33.328 150.971 33.1047 150.779 33.1674C150.312 33.3158 150.037 34.8516 149.998 35.8428L149.953 36.9696Z" fill="#2F2E41"/>
<path d="M184.536 67.8794L192.113 66.6483C197.572 71.8928 201.29 78.6855 202.766 86.1097C205.045 98.2632 205.805 100.542 205.805 100.542L187.574 105.1L177.7 86.1096L184.536 67.8794Z" fill="#E6E6E6"/>
<path d="M150.913 83.6874L146.23 143.049L265.73 152.476L270.413 93.114L150.913 83.6874Z" fill="white"/>
<path d="M163.68 88.2866C160.755 86.1981 157.043 86.0472 155.624 86.0772C156.057 87.4279 157.402 90.892 160.326 92.9814C163.258 95.075 166.966 95.2214 168.382 95.1922C167.95 93.842 166.605 90.3764 163.68 88.2866Z" fill="#2A98C7"/>
<path d="M175.217 126.06L156.028 124.546C155.461 124.501 154.891 124.569 154.35 124.744C153.809 124.92 153.308 125.201 152.876 125.57C152.443 125.939 152.088 126.39 151.829 126.897C151.571 127.403 151.415 127.956 151.37 128.523C151.326 129.09 151.393 129.66 151.569 130.201C151.744 130.742 152.025 131.243 152.394 131.676C152.763 132.108 153.214 132.464 153.721 132.722C154.228 132.98 154.78 133.136 155.347 133.181L174.535 134.694C175.68 134.785 176.815 134.417 177.688 133.671C178.562 132.925 179.103 131.863 179.193 130.718C179.284 129.573 178.915 128.439 178.17 127.565C177.424 126.692 176.362 126.15 175.217 126.06Z" fill="#2A98C7"/>
<path d="M265.702 87.3439L158.119 78.8566C156.868 78.758 155.61 78.9069 154.416 79.2948C153.222 79.6826 152.116 80.3018 151.162 81.117C150.207 81.9321 149.423 82.9273 148.853 84.0457C148.283 85.1641 147.939 86.3837 147.841 87.6351L143.703 140.048C143.504 142.576 144.317 145.079 145.964 147.008C147.61 148.936 149.955 150.132 152.483 150.332L260.065 158.819C261.317 158.918 262.575 158.769 263.769 158.381C264.963 157.993 266.068 157.374 267.023 156.559C267.977 155.743 268.762 154.748 269.332 153.63C269.902 152.512 270.246 151.292 270.344 150.041L274.276 100.224L274.355 99.2064L274.48 97.6226C274.579 96.3713 274.43 95.1128 274.042 93.9191C273.654 92.7253 273.035 91.6196 272.22 90.6651C271.405 89.7107 270.41 88.9261 269.291 88.3562C268.173 87.7864 266.953 87.4424 265.702 87.3439ZM262.525 132.946L261.843 141.581C261.719 143.106 260.995 144.52 259.831 145.513C258.668 146.506 257.158 146.998 255.632 146.881L241.239 145.747C239.714 145.623 238.3 144.899 237.307 143.735C236.314 142.571 235.822 141.062 235.939 139.536L236.62 130.901C236.745 129.376 237.469 127.963 238.633 126.969C239.797 125.976 241.306 125.484 242.832 125.6L257.22 126.736C258.745 126.861 260.158 127.584 261.152 128.747C262.146 129.911 262.64 131.42 262.525 132.946ZM150.418 128.443C150.53 127.046 151.191 125.75 152.257 124.84C153.323 123.93 154.707 123.479 156.104 123.588L175.292 125.103C175.985 125.156 176.661 125.346 177.281 125.661C177.9 125.975 178.452 126.409 178.904 126.937C179.356 127.465 179.7 128.077 179.915 128.738C180.131 129.399 180.214 130.096 180.16 130.789C180.105 131.483 179.915 132.158 179.6 132.778C179.285 133.397 178.85 133.949 178.322 134.4C177.793 134.852 177.181 135.195 176.52 135.41C175.859 135.625 175.162 135.707 174.469 135.653L174.459 135.655L155.271 134.141C154.578 134.086 153.903 133.895 153.284 133.579C152.665 133.263 152.114 132.828 151.663 132.299C151.212 131.769 150.871 131.156 150.657 130.495C150.443 129.833 150.362 129.136 150.418 128.443ZM154.526 85.7349L154.395 85.1982L154.947 85.1476C155.163 85.1244 160.267 84.6662 164.24 87.5043C168.213 90.3424 169.431 95.3218 169.484 95.5301L169.61 96.0681L169.06 96.1236C168.278 96.1817 167.493 96.1765 166.712 96.1081C164.228 95.9627 161.829 95.1524 159.765 93.762C155.792 90.9239 154.574 85.9444 154.526 85.7349Z" fill="#2A98C7"/>
<path d="M246.384 138.673L240.148 138.181C239.703 138.147 239.263 138.29 238.924 138.58C238.585 138.87 238.375 139.283 238.34 139.728C238.304 140.172 238.447 140.613 238.737 140.952C239.026 141.292 239.438 141.503 239.883 141.539L246.119 142.031C246.564 142.065 247.004 141.921 247.343 141.631C247.682 141.341 247.893 140.929 247.928 140.484C247.963 140.039 247.82 139.599 247.53 139.259C247.241 138.919 246.829 138.709 246.384 138.673Z" fill="#2A98C7"/>
<path d="M257.897 139.581L251.661 139.089C251.216 139.055 250.776 139.199 250.437 139.489C250.099 139.779 249.889 140.191 249.854 140.636C249.818 141.08 249.961 141.521 250.25 141.86C250.539 142.2 250.951 142.411 251.396 142.447L257.632 142.939C258.077 142.973 258.517 142.829 258.856 142.539C259.194 142.249 259.404 141.837 259.439 141.392C259.474 140.947 259.332 140.507 259.043 140.168C258.753 139.828 258.342 139.617 257.897 139.581Z" fill="#2A98C7"/>
<path d="M246.725 134.355L240.488 133.863C240.044 133.829 239.604 133.973 239.265 134.263C238.926 134.553 238.716 134.966 238.681 135.41C238.646 135.855 238.789 136.295 239.078 136.635C239.367 136.974 239.779 137.185 240.224 137.221L246.46 137.713C246.905 137.748 247.345 137.604 247.684 137.314C248.023 137.024 248.233 136.611 248.268 136.167C248.303 135.722 248.16 135.281 247.871 134.942C247.582 134.602 247.169 134.391 246.725 134.355Z" fill="#2A98C7"/>
<path d="M258.238 135.264L252.001 134.772C251.557 134.737 251.116 134.881 250.777 135.171C250.438 135.461 250.228 135.874 250.193 136.318C250.158 136.763 250.301 137.204 250.59 137.543C250.879 137.883 251.292 138.094 251.737 138.13L257.973 138.622C258.418 138.656 258.858 138.512 259.197 138.222C259.536 137.932 259.746 137.52 259.781 137.075C259.816 136.63 259.673 136.189 259.384 135.85C259.095 135.51 258.682 135.299 258.238 135.264Z" fill="#2A98C7"/>
<path d="M247.065 130.038L240.829 129.546C240.384 129.512 239.944 129.655 239.605 129.945C239.266 130.235 239.056 130.648 239.021 131.093C238.985 131.538 239.128 131.978 239.418 132.318C239.707 132.657 240.119 132.868 240.564 132.904L246.8 133.396C247.245 133.43 247.685 133.286 248.024 132.996C248.363 132.706 248.573 132.294 248.608 131.849C248.643 131.405 248.5 130.964 248.211 130.625C247.922 130.285 247.51 130.074 247.065 130.038Z" fill="#2A98C7"/>
<path d="M258.578 130.946L252.342 130.454C251.897 130.42 251.457 130.564 251.119 130.854C250.78 131.144 250.57 131.557 250.535 132.001C250.5 132.446 250.642 132.886 250.931 133.226C251.221 133.565 251.633 133.776 252.077 133.812L258.313 134.304C258.758 134.338 259.198 134.194 259.537 133.904C259.876 133.614 260.086 133.202 260.121 132.757C260.156 132.313 260.013 131.872 259.724 131.533C259.435 131.193 259.023 130.982 258.578 130.946Z" fill="#2A98C7"/>
<path d="M146.242 104.173L146.161 105.193L272.449 115.114L272.529 114.093L146.242 104.173Z" fill="white"/>
<path d="M274.355 99.2062L274.276 100.224L269.881 99.8795L223.053 96.2012L223.138 95.1821L269.96 98.8614L274.355 99.2062Z" fill="#3F3D56"/>
<path d="M119.971 88.3885C119.971 88.3885 113.134 117.253 121.49 117.253C129.845 117.253 149.595 84.5905 149.595 84.5905L142.758 76.235L130.488 93.2709L129.845 84.5905L119.971 88.3885Z" fill="#A0616A"/>
<path d="M147.773 85.8453C151.446 85.8453 154.424 82.8677 154.424 79.1946C154.424 75.5216 151.446 72.5439 147.773 72.5439C144.1 72.5439 141.122 75.5216 141.122 79.1946C141.122 82.8677 144.1 85.8453 147.773 85.8453Z" fill="#A0616A"/>
<path d="M136.898 64.0814L132.34 59.5239C132.34 59.5239 123.225 64.841 122.466 70.1582C121.706 75.4754 117.908 92.1864 117.908 92.1864L131.961 93.3258L136.518 86.4895L136.898 64.0814Z" fill="#E6E6E6"/>
</g>
<defs>
<clipPath id="clip0_4_89">
<rect width="462.663" height="300" fill="white"/>
</clipPath>
</defs>
</svg>
